<?xml version="1.0" encoding="UTF-8" standalone="no"?>
<!-- Created with Inkscape (http://www.inkscape.org/) -->

<svg
   width="2895"
   height="3840"
   viewBox="0 0 765.96873 1016"
   version="1.1"
   id="svg1"
   xml:space="preserve"
   inkscape:export-filename="marco.svg"
   inkscape:export-xdpi="96"
   inkscape:export-ydpi="96"
   xmlns:inkscape="http://www.inkscape.org/namespaces/inkscape"
   xmlns:sodipodi="http://sodipodi.sourceforge.net/DTD/sodipodi-0.dtd"
   xmlns="http://www.w3.org/2000/svg"
   xmlns:svg="http://www.w3.org/2000/svg"><sodipodi:namedview
     id="namedview1"
     pagecolor="#ffffff"
     bordercolor="#000000"
     borderopacity="0.25"
     inkscape:showpageshadow="2"
     inkscape:pageopacity="0.0"
     inkscape:pagecheckerboard="0"
     inkscape:deskcolor="#d1d1d1"
     inkscape:document-units="mm"><inkscape:page
       x="0"
       y="0"
       width="765.96875"
       height="1016"
       id="page2"
       margin="0"
       bleed="0" /></sodipodi:namedview><defs
     id="defs1" /><g
     inkscape:label="Layer 1"
     inkscape:groupmode="layer"
     id="layer1"><path
       style="fill:#000000"
       d="m 55.826995,359.48612 c 0,-68.01061 -0.05193,-65.55632 1.590955,-75.19125 3.475408,-20.38204 12.034262,-38.85294 25.600808,-55.24924 2.613933,-3.15915 8.972679,-9.63666 12.495739,-12.72911 18.401633,-16.1525 41.527643,-26.16014 66.013533,-28.56694 3.26229,-0.32066 -2.82623,-0.3677 -51.03861,-0.3943 l -54.74277,-0.0302 0.159877,-5.09323 c 1.089578,-34.71076 18.91916,-68.31367 47.413173,-89.358273 14.6886,-10.84844 32.20597,-18.30765 50.00625,-21.29355 10.21255,-1.7131 -0.88263,-1.57441 133.61458,-1.67011 123.916,-0.0882 127.43038,-0.0653 134.79143,0.87844 38.96827,4.99577 72.27159,28.29219 90.00228,62.958593 8.35868,16.34259 12.41964,32.43536 12.85263,50.9323 0.90882,38.82418 -16.95862,74.69264 -48.62511,97.61374 -15.33055,11.09669 -34.9523,18.80173 -53.55456,21.02973 -1.89177,0.22658 -3.79677,0.45524 -4.23333,0.50815 -0.43656,0.0529 23.34617,0.11403 52.85052,0.13583 l 53.64427,0.0396 v 58.7375 58.73751 H 290.24783 55.826995 Z"
       id="path3" /></g></svg>
