<?xml version="1.0" encoding="UTF-8" standalone="no"?>
<!-- Created with Inkscape (http://www.inkscape.org/) -->

<svg
   width="2895"
   height="3840"
   viewBox="0 0 765.96873 1016"
   version="1.1"
   id="svg1"
   xml:space="preserve"
   inkscape:export-filename="2.svg"
   inkscape:export-xdpi="96"
   inkscape:export-ydpi="96"
   xmlns:inkscape="http://www.inkscape.org/namespaces/inkscape"
   xmlns:sodipodi="http://sodipodi.sourceforge.net/DTD/sodipodi-0.dtd"
   xmlns="http://www.w3.org/2000/svg"
   xmlns:svg="http://www.w3.org/2000/svg"><sodipodi:namedview
     id="namedview1"
     pagecolor="#ffffff"
     bordercolor="#000000"
     borderopacity="0.25"
     inkscape:showpageshadow="2"
     inkscape:pageopacity="0.0"
     inkscape:pagecheckerboard="0"
     inkscape:deskcolor="#d1d1d1"
     inkscape:document-units="mm"><inkscape:page
       x="0"
       y="0"
       width="765.96875"
       height="1016"
       id="page2"
       margin="0"
       bleed="0" /></sodipodi:namedview><defs
     id="defs1" /><g
     inkscape:label="Layer 1"
     inkscape:groupmode="layer"
     id="layer1"><path
       style="fill:#000000"
       d="m 351.49888,617.61597 c -3.10023,-0.21287 -10.34607,-1.22225 -14.02292,-1.95345 -43.8958,-8.72944 -79.06257,-41.79449 -90.58669,-85.17284 -1.13175,-4.26005 -2.28058,-10.19539 -2.99591,-15.47813 l -0.60907,-4.49792 v -68.26251 c 0,-75.2495 -0.10453,-70.07855 1.60731,-79.5073 8.28498,-45.63337 42.53487,-82.06627 87.55525,-93.13584 4.74614,-1.16697 10.29248,-2.14799 16.00932,-2.83165 3.57817,-0.42791 12.04816,-0.46464 125.80937,-0.54558 123.916,-0.0882 127.43038,-0.0653 134.79143,0.87844 35.5961,4.56346 66.27642,24.19731 85.3571,54.62421 2.50421,3.99334 6.71834,12.16309 8.56056,16.596 5.38633,12.96105 8.40138,26.71987 8.93034,40.75245 l 0.17204,4.56406 -54.87657,0.0477 c -30.18211,0.0262 -54.28125,0.0886 -53.55364,0.13853 2.49868,0.17156 10.05638,1.17427 12.83229,1.7025 36.26014,6.89999 67.35954,30.55975 83.59283,63.59566 13.56507,27.60588 15.655,59.33557 5.84684,88.76772 -13.59565,40.79758 -48.93389,71.06808 -91.42405,78.31322 -9.9631,1.69884 -0.77972,1.59572 -137.43447,1.54327 -68.33115,-0.0262 -124.83376,-0.0886 -125.56136,-0.13853 z"
       id="path4" /></g></svg>
