<?xml version="1.0" encoding="UTF-8" standalone="no"?>
<!-- Created with Inkscape (http://www.inkscape.org/) -->

<svg
   width="210mm"
   height="297mm"
   viewBox="0 0 210 297"
   version="1.1"
   id="svg1"
   xml:space="preserve"
   xmlns:inkscape="http://www.inkscape.org/namespaces/inkscape"
   xmlns:sodipodi="http://sodipodi.sourceforge.net/DTD/sodipodi-0.dtd"
   xmlns="http://www.w3.org/2000/svg"
   xmlns:svg="http://www.w3.org/2000/svg"><sodipodi:namedview
     id="namedview1"
     pagecolor="#ffffff"
     bordercolor="#000000"
     borderopacity="0.25"
     inkscape:showpageshadow="2"
     inkscape:pageopacity="0.0"
     inkscape:pagecheckerboard="0"
     inkscape:deskcolor="#d1d1d1"
     inkscape:document-units="mm"><inkscape:page
       x="0"
       y="0"
       width="210"
       height="297"
       id="page2"
       margin="0"
       bleed="0" /></sodipodi:namedview><defs
     id="defs1" /><g
     inkscape:label="Layer 1"
     inkscape:groupmode="layer"
     id="layer1"><g
       id="g1"
       transform="matrix(0.49549475,0,0,0.49549475,3.566805,-10.806806)"
       style="fill:#ffffff"><path
         d="m 368.53,571.51 h -1.44 v 9.11 h 1.44 V 577 h 7.37 v -1.85 h -7.37 z m 7.36,-13.13 h -8 c -0.25,0 -0.44,0.07 -0.58,0.19 -0.14,0.14 -0.21,0.33 -0.21,0.58 v 2.03 l 6.98,3.22 -6.98,3.22 v 2.01 c 0,0.24 0.07,0.44 0.21,0.58 0.14,0.14 0.33,0.21 0.58,0.21 h 8 v -1.78 h -7.35 l 7.35,-3.34 v -1.77 l -7.36,-3.36 h 7.36 v -1.78 z"
         fill="#ffffff"
         id="path1"
         style="display:inline;fill:#ffffff" /><path
         d="m 233.02,325.67 h 58.97 c 47.31,0 85.65,38.04 85.65,84.98 h -85.65 c 47.31,0 85.65,38.04 85.65,84.98 0,46.94 -38.34,84.98 -85.65,84.98 H 120.7 c -47.31,0 -85.65,-38.04 -85.65,-84.98 v -84.98 c 0,-46.94 38.34,-84.98 85.65,-84.98 h 49.25 c 0.04,0.36 0.07,0.73 0.09,1.1 0.03,0.4 0.06,0.8 0.1,1.2 0.04,0.32 0.12,0.64 0.2,0.96 0.03,0.14 0.07,0.28 0.1,0.42 0.08,0.34 0.16,0.68 0.23,1.02 0.14,0.61 0.28,1.22 0.41,1.84 0.05,0.21 0.02,0.45 -0.01,0.66 -0.16,0.94 0.02,1.83 0.39,2.69 0.39,0.89 0.6,1.79 0.36,2.77 -0.22,0.9 -0.21,1.82 -0.05,2.74 0.07,0.43 0.01,0.89 -0.07,1.33 -0.12,0.68 -0.25,1.36 -0.38,2.04 -0.14,0.72 -0.28,1.44 -0.4,2.16 -0.27,1.61 -0.26,3.23 0.15,4.81 0.14,0.55 0.44,1.08 0.77,1.56 0.42,0.62 0.81,1.21 0.54,2.01 -0.05,0.15 -0.02,0.33 0,0.5 0,0.03 0,0.05 0.01,0.08 l 0.27,1.96 c 0.04,0.32 0.09,0.63 0.13,0.94 0.17,1.2 -0.47,2.1 -1.1,3 l -0.09,0.12 -0.24,0.33 c -0.22,0.29 -0.43,0.59 -0.61,0.9 -0.13,0.23 -0.19,0.55 -0.15,0.81 0.08,0.61 -0.02,1.17 -0.21,1.73 -0.21,0.64 -0.28,1.29 -0.14,1.98 0.2,1.01 -0.07,1.96 -0.7,2.76 -0.5,0.64 -0.77,1.35 -0.88,2.14 -0.17,1.2 -0.55,2.34 -0.94,3.48 -0.1,0.29 -0.19,0.57 -0.29,0.86 -0.24,0.74 -0.47,1.49 -0.69,2.23 -0.07,0.22 -0.13,0.44 -0.2,0.65 -0.18,0.58 -0.36,1.17 -0.51,1.76 -0.28,1.14 -0.53,2.28 -0.77,3.43 -0.15,0.74 -0.35,1.44 -0.77,2.1 -0.3,0.48 -0.52,1.01 -0.74,1.54 -0.1,0.25 -0.2,0.49 -0.31,0.73 -0.15,0.33 -0.3,0.65 -0.47,0.97 -0.2,0.37 -0.41,0.72 -0.63,1.08 -0.03,0.05 -0.06,0.1 -0.09,0.14 -0.1,0.17 -0.2,0.35 -0.35,0.46 -0.44,0.32 -0.61,0.79 -0.76,1.27 -0.74,2.37 -1.46,4.75 -2.18,7.13 -0.5,1.63 -0.99,3.26 -1.47,4.9 -0.11,0.36 -0.3,0.61 -0.55,0.89 -0.56,0.61 -1.07,1.29 -1.51,1.99 -1.02,1.65 -1.99,3.32 -2.97,4.99 l -0.16,0.27 c -0.16,0.27 -0.3,0.55 -0.44,0.83 -0.17,0.34 -0.34,0.68 -0.54,1.01 -0.14,0.22 -0.31,0.4 -0.49,0.59 -0.15,0.16 -0.3,0.32 -0.42,0.5 -1.67,2.39 -3.15,4.89 -4.37,7.53 v 0.02 c -0.11,0.22 -0.24,0.49 -0.19,0.69 0.12,0.5 -0.07,0.87 -0.27,1.27 -0.05,0.09 -0.1,0.19 -0.14,0.28 a 43,43 0 0 0 -1.44,3.58 c -0.91,2.55 -1.81,5.11 -2.67,7.68 -0.16,0.5 -0.25,1.02 -0.34,1.55 -0.05,0.3 -0.1,0.6 -0.17,0.9 -0.04,0.2 -0.13,0.43 -0.27,0.57 -1.21,1.13 -1.53,2.62 -1.7,4.17 -0.02,0.17 0.04,0.34 0.09,0.51 0.01,0.04 0.03,0.09 0.04,0.13 0.02,0.07 0.06,0.15 0.1,0.22 0.06,0.11 0.11,0.22 0.11,0.33 0,0.96 0.62,1.22 1.42,1.3 0.08,0 0.15,0.02 0.23,0.03 0.09,0.02 0.18,0.03 0.27,0.04 0.42,0.02 0.84,0.03 1.26,0.05 1.14,0.05 2.28,0.1 3.43,0.12 1.99,0.05 3.97,0.08 5.96,0.12 l 3.41,0.06 c 1.31,0.03 2.62,0.05 3.93,0.08 1.31,0.03 2.62,0.05 3.93,0.08 1.56,0.03 3.13,0.06 4.69,0.08 1.56,0.03 3.13,0.05 4.69,0.08 h 0.09 c 0.3,0 0.61,0 0.79,0.33 h 1.68 l 0.31,-0.06 c 0.22,-0.05 0.45,-0.1 0.67,-0.1 q 4.89,-0.015 9.78,0 c 0.22,0 0.45,0.05 0.67,0.1 l 0.31,0.06 h 0.33 a 2.84,2.84 0 0 1 2.01,0 h 51.64 l 0.28,-0.06 c 0.2,-0.05 0.4,-0.1 0.61,-0.1 q 2.715,-0.015 5.43,0 c 0.2,0 0.4,0.05 0.61,0.1 0.09,0.02 0.19,0.05 0.28,0.06 h 3.02 c 0.61,-0.47 1.57,-0.47 2.18,0 h 2.85 c 0.2,-0.35 0.52,-0.34 0.84,-0.33 h 1.53 c 0.9,0 1.81,0.02 2.71,-0.02 0.98,-0.04 1.96,-0.14 2.94,-0.24 0.27,-0.03 0.54,-0.06 0.81,-0.08 0.22,-0.02 0.47,-0.06 0.64,-0.18 0.05,-0.04 0.1,-0.07 0.16,-0.11 0.28,-0.19 0.58,-0.4 0.66,-0.67 0.52,-1.78 0.79,-3.6 -0.45,-5.2 -0.58,-0.75 -0.87,-1.55 -1.17,-2.42 l -0.03,-0.08 c -0.79,-2.24 -1.65,-4.46 -2.51,-6.68 -0.24,-0.62 -0.48,-1.24 -0.72,-1.87 -0.22,-0.57 -0.46,-1.13 -0.69,-1.69 l -0.42,-1.02 c -0.15,-0.38 -0.39,-0.7 -0.63,-1.02 -0.16,-0.22 -0.32,-0.43 -0.45,-0.65 -0.16,-0.27 -0.19,-0.6 -0.23,-0.93 -0.04,-0.33 -0.07,-0.66 -0.22,-0.97 a 71,71 0 0 0 -4.28,-7.69 c -0.06,-0.1 -0.13,-0.2 -0.19,-0.29 -0.24,-0.37 -0.48,-0.73 -0.67,-1.13 -1.35,-2.8 -2.82,-5.53 -4.5,-8.14 -0.02,-0.03 -0.03,-0.06 -0.05,-0.09 -0.06,-0.1 -0.11,-0.2 -0.2,-0.25 -0.61,-0.37 -0.79,-0.96 -0.97,-1.57 -0.03,-0.09 -0.05,-0.17 -0.08,-0.26 -0.97,-3.09 -1.97,-6.18 -2.97,-9.26 -0.26,-0.79 -0.55,-1.58 -0.87,-2.35 -0.1,-0.25 -0.28,-0.49 -0.48,-0.67 -1.31,-1.17 -2.37,-2.55 -3.44,-3.93 -0.33,-0.43 -0.67,-0.87 -1.01,-1.29 -0.04,-0.04 -0.07,-0.09 -0.1,-0.14 -0.08,-0.11 -0.17,-0.23 -0.28,-0.3 -1.2,-0.78 -1.84,-1.99 -2.46,-3.18 -0.07,-0.14 -0.14,-0.27 -0.21,-0.4 -0.95,-1.77 -1.78,-3.6 -2.6,-5.43 -0.16,-0.36 -0.33,-0.72 -0.49,-1.08 -0.17,-0.36 -0.21,-0.83 -0.15,-1.22 0.16,-1.05 0.22,-2.11 0.29,-3.17 0.01,-0.19 0.02,-0.39 0.04,-0.58 0.07,-1.1 0.01,-2.15 -0.14,-3.24 -0.08,-0.59 0.01,-1.2 0.11,-1.81 0.03,-0.17 0.05,-0.34 0.08,-0.51 0.14,-1.01 0.18,-2 -0.39,-2.92 -0.15,-0.24 -0.17,-0.56 -0.18,-0.85 v -0.04 q -0.015,-0.36 0,-0.72 c 0,-0.29 0,-0.59 -0.02,-0.88 -0.03,-0.38 -0.09,-0.81 -0.28,-1.12 -0.55,-0.87 -0.67,-1.83 -0.7,-2.81 -0.03,-0.95 -0.3,-1.82 -0.57,-2.71 l -0.04,-0.14 a 56,56 0 0 1 -1.03,-3.8 c -0.08,-0.35 -0.02,-0.75 0.04,-1.13 v -0.04 c 0.09,-0.55 0.22,-1.1 0.36,-1.64 0.18,-0.7 0.28,-1.38 -0.36,-1.93 -0.1,-0.08 -0.19,-0.25 -0.18,-0.37 0.03,-0.21 0.04,-0.42 0.04,-0.64 0.02,-0.54 0.04,-1.08 0.39,-1.54 0.38,-0.49 0.48,-1.05 0.5,-1.65 0.02,-0.44 0.06,-0.87 0.09,-1.31 0.03,-0.32 0.06,-0.63 0.08,-0.95 0.01,-0.2 0.01,-0.4 0.01,-0.6 0,-0.24 0,-0.49 0.02,-0.73 0.04,-0.42 0.08,-0.85 0.22,-1.22 0.24,-0.63 0.38,-1.27 0.43,-1.95 0.06,-0.78 0.25,-1.54 0.44,-2.3 0.08,-0.31 0.29,-0.61 0.51,-0.86 0.87,-1 1.04,-2.12 0.66,-3.36 -0.01,-0.05 -0.03,-0.09 -0.04,-0.14 A 2.3,2.3 0 0 0 232.99,327 c -0.23,-0.48 -0.18,-0.93 0.04,-1.36 z m 5.13,-14.56 h 139.5 V 226.13 H 292 c 47.31,0 85.65,-38.04 85.65,-84.98 0,-46.94 -38.34,-84.98 -85.65,-84.98 H 120.7 c -47.31,0 -85.65,38.04 -85.65,84.98 h 85.65 c -47.31,0 -85.65,38.04 -85.65,84.98 v 84.98 h 134.41 c 0,-0.37 0,-0.73 -0.02,-1.1 -0.04,-0.84 -0.3,-1.71 -0.61,-2.5 -0.49,-1.22 -0.43,-2.4 -0.03,-3.6 0.07,-0.2 0.2,-0.43 0.37,-0.53 0.51,-0.31 0.54,-0.76 0.43,-1.24 -0.33,-1.48 -0.72,-2.93 -1.67,-4.17 -0.26,-0.34 -0.47,-0.71 -0.68,-1.09 -0.06,-0.11 -0.13,-0.23 -0.19,-0.34 -0.09,-0.15 -0.17,-0.3 -0.26,-0.44 -0.61,-1.06 -1.22,-2.12 -2.02,-3.06 l -0.04,-0.05 c -0.8,-0.94 -1.61,-1.88 -1.76,-3.2 -0.03,-0.21 -0.15,-0.41 -0.27,-0.62 -0.04,-0.07 -0.09,-0.14 -0.12,-0.21 -0.49,-0.92 -1.02,-1.78 -1.99,-2.31 -0.51,-0.29 -0.78,-0.81 -0.57,-1.44 0.19,-0.58 0.07,-1.11 -0.21,-1.61 -0.21,-0.37 -0.42,-0.74 -0.64,-1.11 -0.26,-0.45 -0.53,-0.9 -0.78,-1.36 -0.15,-0.29 -0.28,-0.61 -0.31,-0.93 -0.02,-0.31 0.01,-0.63 0.05,-0.94 l 0.03,-0.31 c 0.1,-1.01 0.18,-2 -0.44,-2.91 -0.21,-0.32 -0.35,-0.7 -0.45,-1.08 -0.41,-1.65 -0.82,-3.29 -1.22,-4.94 -0.17,-0.68 -0.33,-1.37 -0.5,-2.05 -0.03,-0.12 -0.06,-0.24 -0.09,-0.35 -0.08,-0.34 -0.16,-0.69 -0.27,-1.02 -0.09,-0.3 -0.19,-0.6 -0.3,-0.89 -0.15,-0.44 -0.31,-0.89 -0.42,-1.34 -0.01,-0.05 -0.03,-0.09 -0.04,-0.14 -0.25,-0.95 -0.51,-1.9 -0.31,-2.91 0.03,-0.16 0,-0.34 -0.04,-0.52 0,-0.05 -0.02,-0.09 -0.03,-0.14 -0.07,-0.38 -0.14,-0.77 -0.22,-1.15 l -0.15,-0.67 c -0.24,-1.06 -0.48,-2.11 -0.74,-3.16 -0.14,-0.56 -0.29,-1.11 -0.44,-1.66 -0.15,-0.55 -0.3,-1.1 -0.44,-1.66 -0.07,-0.29 -0.09,-0.63 -0.02,-0.91 0.19,-0.79 0.06,-1.55 -0.09,-2.32 -0.05,-0.27 -0.07,-0.55 -0.08,-0.83 0,-0.17 -0.02,-0.34 -0.03,-0.5 -0.03,-0.33 -0.05,-0.66 -0.08,-0.99 -0.06,-1 -0.13,-2 -0.5,-2.96 -0.2,-0.52 -0.2,-1.07 -0.14,-1.65 0.05,-0.41 0,-0.83 -0.05,-1.26 -0.02,-0.19 -0.04,-0.38 -0.05,-0.57 L 151,239.9 c -0.02,-0.31 -0.05,-0.62 -0.06,-0.93 0,-0.09 0,-0.18 0.02,-0.27 0.01,-0.13 0.03,-0.27 0,-0.39 -0.07,-0.28 -0.14,-0.57 -0.2,-0.85 -0.2,-0.86 -0.4,-1.72 -0.72,-2.54 -0.47,-1.19 -0.5,-2.38 -0.21,-3.53 0.3,-1.2 0.09,-2.19 -0.55,-3.18 -0.35,-0.53 -0.63,-1.12 -0.88,-1.71 -0.33,-0.79 -0.63,-1.61 -0.91,-2.42 q -0.87,-2.625 -1.71,-5.25 l -0.18,-0.57 c -0.17,-0.54 -0.34,-1.07 -0.51,-1.61 q -0.405,-1.305 -0.84,-2.61 c -0.08,-0.24 -0.19,-0.46 -0.31,-0.68 -0.08,-0.15 -0.15,-0.3 -0.22,-0.45 -0.04,-0.08 -0.07,-0.16 -0.11,-0.25 -0.12,-0.25 -0.24,-0.5 -0.26,-0.76 -0.04,-0.75 -0.31,-1.42 -0.61,-2.08 -0.15,-0.32 -0.31,-0.63 -0.47,-0.95 -0.29,-0.58 -0.59,-1.17 -0.81,-1.77 -0.29,-0.81 -0.52,-1.64 -0.75,-2.48 -0.11,-0.41 -0.22,-0.81 -0.34,-1.22 -0.06,-0.2 -0.11,-0.41 -0.16,-0.61 -0.13,-0.51 -0.26,-1.01 -0.5,-1.46 -0.69,-1.23 -0.65,-2.52 -0.51,-3.84 0.04,-0.41 0.01,-0.77 -0.21,-1.11 -0.36,-0.55 -0.43,-1.14 -0.26,-1.77 l 0.06,-0.21 c 0.09,-0.34 0.18,-0.67 0.24,-1.01 0.07,-0.41 0.12,-0.82 0.12,-1.23 v -1.49 c 0,-0.79 -0.01,-1.57 0.02,-2.36 0.03,-0.69 0.1,-1.37 0.17,-2.05 0.05,-0.45 0.09,-0.91 0.13,-1.36 0.11,-1.52 1.34,-2.45 2.84,-2.12 l 0.13,0.03 c 0.12,0.03 0.24,0.06 0.36,0.06 0.41,0.02 0.64,-0.18 0.66,-0.58 0,-0.13 -0.01,-0.25 -0.04,-0.38 l -0.03,-0.2 c -0.04,-0.39 -0.09,-0.78 -0.14,-1.16 -0.17,-1.3 -0.33,-2.6 -0.26,-3.92 0.06,-1.12 0.11,-2.25 0.16,-3.37 v -0.05 c 0.02,-0.43 -0.06,-0.8 -0.36,-1.16 -0.19,-0.23 -0.3,-0.61 -0.29,-0.92 0.03,-0.89 0.1,-1.79 0.22,-2.67 0.58,-4.02 1.65,-7.93 2.91,-11.79 1.32,-4.01 2.93,-7.9 4.9,-11.66 1.62,-3.1 3.33,-6.14 5.55,-8.87 0.7,-0.86 1.46,-1.7 2.29,-2.43 l 0.23,-0.2 c 0.34,-0.3 0.67,-0.59 0.97,-0.94 0.4,-0.47 0.82,-0.92 1.25,-1.37 l 0.51,-0.54 c 0.07,-0.07 0.14,-0.14 0.21,-0.22 0.1,-0.11 0.21,-0.21 0.31,-0.33 0.21,-0.24 0.41,-0.49 0.61,-0.73 0.4,-0.49 0.8,-0.98 1.24,-1.43 0.73,-0.76 1.51,-1.49 2.33,-2.17 0.22,-0.18 0.43,-0.36 0.65,-0.54 1.24,-1.03 2.49,-2.07 3.81,-2.99 3.05,-2.13 6.32,-3.89 9.72,-5.41 2.89,-1.29 5.86,-2.34 8.91,-3.18 3.36,-0.92 6.8,-1.27 10.25,-1.51 h 0.08 c 0.28,-0.02 0.56,-0.03 0.72,-0.33 h -0.01 0.5 l 0.26,0.06 c 0.18,0.05 0.37,0.09 0.55,0.1 1.59,0.01 3.17,0.01 4.76,0 0.18,0 0.37,-0.05 0.55,-0.1 l 0.26,-0.06 h 0.5 c 0.15,0.29 0.42,0.31 0.69,0.33 h 0.11 l 0.44,0.03 c 0.58,0.04 1.16,0.09 1.73,0.18 0.38,0.06 0.76,0.13 1.15,0.19 2.15,0.35 4.3,0.7 6.44,1.13 4.85,0.96 9.47,2.66 13.85,4.92 2.45,1.27 4.8,2.74 7.11,4.25 2.12,1.39 4.07,3.02 5.9,4.8 1.81,1.76 3.4,3.69 4.91,5.7 0.39,0.51 0.81,1.07 0.93,1.67 0.14,0.65 0.51,0.89 1.01,1.06 0.51,0.16 0.88,0.48 1.19,0.88 0.61,0.78 1.22,1.57 1.83,2.35 l 1.56,2.01 c 0.36,0.46 0.67,0.92 0.25,1.46 0.15,0.2 0.3,0.4 0.44,0.59 0.31,0.4 0.6,0.79 0.88,1.2 0.38,0.56 0.73,1.13 1.04,1.72 l 0.6,1.14 c 0.69,1.3 1.38,2.6 1.98,3.93 0.59,1.3 1.08,2.64 1.57,3.98 0.12,0.34 0.25,0.67 0.37,1.01 0.31,0.84 0.61,1.69 0.82,2.55 0.38,1.58 0.74,3.16 1.1,4.75 0.17,0.73 0.33,1.46 0.5,2.19 0.06,0.27 0.15,0.54 0.25,0.8 0.24,0.66 0.56,0.76 1.12,0.34 0.1,-0.07 0.19,-0.17 0.27,-0.26 l 0.15,-0.15 c 0.24,-0.22 0.48,-0.45 0.71,-0.68 0.52,-0.5 1.05,-1.01 1.6,-1.48 0.66,-0.56 1.44,-0.43 1.93,0.29 0.2,0.29 0.3,0.67 0.4,1.02 0.01,0.04 0.02,0.09 0.04,0.13 0.07,0.24 0.1,0.5 0.13,0.75 0,0.08 0.02,0.16 0.03,0.24 l 0.12,0.79 c 0.1,0.62 0.19,1.24 0.22,1.86 0.03,0.67 0.12,1.25 0.56,1.79 0.42,0.5 0.67,1.09 0.64,1.77 0,0.11 -0.01,0.22 -0.02,0.33 -0.04,0.67 -0.07,1.34 0.28,1.96 0.05,0.09 0.07,0.23 0.04,0.33 -0.15,0.53 0.03,0.98 0.26,1.44 0.06,0.12 0.07,0.27 0.09,0.41 0,0.11 0.02,0.22 0.05,0.32 0.09,0.34 0.2,0.67 0.3,1 l 0.18,0.58 v 0.84 c -0.17,0.44 -0.35,0.89 -0.52,1.33 -0.42,1.06 -0.83,2.13 -1.25,3.19 -0.76,1.93 -1.19,3.95 -1.42,6.01 -0.22,1.91 -0.51,3.82 -0.82,5.72 a 41,41 0 0 1 -0.72,3.45 c -0.22,0.89 -0.51,1.77 -0.82,2.64 -0.19,0.52 -0.39,1.03 -0.6,1.54 -0.18,0.44 -0.36,0.89 -0.53,1.34 -0.49,1.32 -1.04,2.59 -2.06,3.61 -0.49,0.5 -0.68,1.13 -0.57,1.85 0.06,0.4 0.07,0.81 0.09,1.21 v 0.2 c 0.01,0.22 0.01,0.43 0,0.65 0,0.4 -0.02,0.8 0.05,1.19 0.45,2.71 -0.17,5.28 -0.97,7.82 -0.25,0.79 -0.54,1.58 -0.83,2.36 -0.34,0.92 -0.68,1.84 -0.96,2.78 -0.32,1.11 -0.84,2.1 -1.36,3.1 -0.08,0.16 -0.17,0.32 -0.25,0.48 -0.51,0.99 -0.97,2 -1.2,3.11 -0.24,1.17 -0.55,2.34 -0.98,3.46 -0.03,0.09 -0.07,0.18 -0.1,0.26 -0.44,1.14 -0.87,2.27 -1.02,3.5 -0.02,0.17 -0.07,0.33 -0.11,0.5 -0.01,0.05 -0.03,0.1 -0.04,0.16 -0.17,0.63 -0.46,1.19 -0.95,1.64 -0.18,0.17 -0.33,0.38 -0.43,0.6 -0.4,0.86 -0.79,1.73 -1.15,2.61 -0.05,0.12 -0.1,0.25 -0.16,0.38 -0.22,0.5 -0.43,1.02 -0.44,1.52 -0.01,0.84 -0.26,1.52 -0.68,2.2 -0.15,0.23 -0.27,0.49 -0.35,0.75 -0.39,1.31 -0.76,2.63 -1.13,3.95 -0.04,0.15 -0.06,0.3 -0.08,0.45 -0.01,0.1 -0.02,0.19 -0.04,0.29 -0.03,0.18 -0.05,0.36 -0.08,0.55 -0.05,0.43 -0.11,0.85 -0.26,1.24 -0.38,0.96 -0.57,1.95 -0.55,2.95 0.05,1.91 -0.39,3.69 -0.99,5.49 -0.44,1.31 -0.67,2.69 -0.58,4.12 0.07,0.95 -0.02,1.95 -0.91,2.57 -0.57,0.41 -0.67,0.89 -0.38,1.45 0.39,0.74 0.28,1.47 0.07,2.2 -0.09,0.32 -0.21,0.62 -0.33,0.93 -0.06,0.16 -0.12,0.32 -0.18,0.49 -0.05,0.15 -0.12,0.3 -0.18,0.46 -0.15,0.34 -0.29,0.69 -0.33,1.04 -0.11,1.09 -0.51,2.07 -0.91,3.05 -0.1,0.25 -0.21,0.51 -0.3,0.76 -0.15,0.39 -0.27,0.79 -0.37,1.2 l -0.48,1.95 c -0.18,0.76 -0.37,1.52 -0.56,2.28 -0.12,0.46 -0.24,0.92 -0.37,1.39 -0.12,0.43 -0.24,0.85 -0.35,1.28 -0.07,0.26 -0.12,0.52 -0.17,0.78 -0.08,0.4 -0.17,0.79 -0.29,1.18 -0.16,0.51 -0.38,1 -0.6,1.49 -0.05,0.12 -0.1,0.24 -0.16,0.35 -0.12,0.29 -0.26,0.57 -0.39,0.85 -0.24,0.5 -0.48,1 -0.66,1.52 -0.2,0.57 -0.39,1.14 -0.58,1.7 -0.8,2.37 -1.61,4.73 -2.64,7.02 -0.34,0.76 -0.67,1.55 -0.85,2.36 -0.13,0.6 -0.21,1.22 -0.28,1.83 -0.02,0.19 -0.04,0.37 -0.07,0.56 z M 136.06,530.92 v -49.56 h 38.09 l -3.95,10.8 h -18.71 v 10.03 h 15.06 l -3.95,10.82 h -11.12 v 17.9 h -15.43 z m 58.25,-49.56 h -15.43 v 49.56 h 15.43 z m 10.61,49.56 v -49.56 h 38.09 l -3.95,10.8 h -18.71 v 10.03 h 15.06 l -3.95,10.82 h -11.12 v 17.9 h -15.43 z m 55.95,-36.83 6.17,20.65 H 254.9 l 5.96,-20.65 h 0.02 z m -7.78,-12.75 -18.06,49.56 h 15.2 l 1.92,-6.66 h 17.44 l 2.01,6.66 h 15.59 l -18.06,-49.56 h -16.05 z"
         fill="#ffffff"
         fill-rule="evenodd"
         id="path2"
         style="display:inline;fill:#ffffff" /></g></g></svg>
