<?xml version="1.0" encoding="UTF-8" standalone="no"?>
<!-- Created with Inkscape (http://www.inkscape.org/) -->

<svg
   width="2895"
   height="3840"
   viewBox="0 0 765.96873 1016"
   version="1.1"
   id="svg1"
   xml:space="preserve"
   xmlns:inkscape="http://www.inkscape.org/namespaces/inkscape"
   xmlns:sodipodi="http://sodipodi.sourceforge.net/DTD/sodipodi-0.dtd"
   xmlns="http://www.w3.org/2000/svg"
   xmlns:svg="http://www.w3.org/2000/svg"><sodipodi:namedview
     id="namedview1"
     pagecolor="#ffffff"
     bordercolor="#000000"
     borderopacity="0.25"
     inkscape:showpageshadow="2"
     inkscape:pageopacity="0.0"
     inkscape:pagecheckerboard="0"
     inkscape:deskcolor="#d1d1d1"
     inkscape:document-units="mm"><inkscape:page
       x="0"
       y="0"
       width="765.96875"
       height="1016"
       id="page2"
       margin="0"
       bleed="0" /></sodipodi:namedview><defs
     id="defs1" /><g
     inkscape:label="Layer 1"
     inkscape:groupmode="layer"
     id="layer1"><path
       style="fill:#000000"
       d="M 590.55,441.99148 V 266.17087 l 3.37344,9.3e-4 c 12.47319,0.003 25.63326,2.06669 37.10781,5.81773 46.73529,15.27779 79.0246,58.03497 80.8738,107.09229 l 0.17204,4.56406 -54.87657,0.0477 c -30.18211,0.0262 -54.28125,0.0886 -53.55364,0.13853 2.49566,0.17136 10.0549,1.17399 12.83229,1.70203 20.53981,3.90505 39.61664,13.1886 55.4302,26.97456 3.27206,2.85251 9.46976,9.09952 12.183,12.2799 14.58678,17.09826 24.17081,38.68383 26.96063,60.72188 1.08101,8.53935 1.19893,19.89138 0.28859,27.78126 -2.21738,19.21796 -8.62732,36.81832 -19.11056,52.47363 -1.38124,2.06268 -2.75353,4.01222 -3.04955,4.3323 l -0.53822,0.58196 -1.35548,-0.85063 c -1.34024,-0.84107 -3.39583,-1.88631 -5.19195,-2.64004 -0.50932,-0.21373 -1.34276,-0.56769 -1.85208,-0.78657 -0.81667,-0.35096 -2.60818,-0.96929 -5.17326,-1.78552 -1.20479,-0.38338 -3.12995,-0.7698 -5.93924,-1.19214 -1.38245,-0.20784 -3.24164,-0.49997 -4.13155,-0.64918 -2.08001,-0.34877 -10.00696,-0.3514 -12.10982,-0.004 -0.8899,0.14701 -2.68957,0.43808 -3.99926,0.64682 -1.30968,0.20875 -3.21468,0.57081 -4.23333,0.80458 -1.01864,0.23377 -2.18096,0.49221 -2.58292,0.57431 -0.40197,0.0821 -0.79595,0.2546 -0.87552,0.38334 -0.0796,0.12875 -0.42827,0.23408 -0.77489,0.23408 -0.34663,0 -0.69815,0.1099 -0.78117,0.24423 -0.083,0.13432 -0.53262,0.32806 -0.99912,0.43052 -0.4665,0.10246 -1.03068,0.2802 -1.25374,0.39499 -0.22305,0.11478 -0.88181,0.405 -1.46389,0.64493 -2.55123,1.05159 -6.06522,3.05545 -9.39271,5.35621 -5.28032,3.65103 -11.1278,9.70986 -15.00856,15.551 -1.77109,2.66578 -3.94423,6.72864 -4.67015,8.73125 -0.26375,0.7276 -0.63563,1.6801 -0.82641,2.11667 -0.19078,0.43656 -0.49032,1.32953 -0.66563,1.98437 -0.17532,0.65485 -0.41367,1.42875 -0.52968,1.71979 -0.78717,1.97494 -1.67507,7.39674 -2.05815,12.56771 l -0.18621,2.51355 -6.01927,0.0711 -6.01927,0.0711 z m 49.74167,153.11532 c 0,-0.3912 1.42877,-1.5799 2.11666,-1.76102 0.604,-0.15902 0.58101,-0.10254 -0.26458,0.65017 -1.08695,0.96757 -1.85208,1.42648 -1.85208,1.11085 z"
       id="path1" /></g></svg>
