<?xml version="1.0" encoding="UTF-8" standalone="no"?>
<!-- Created with Inkscape (http://www.inkscape.org/) -->

<svg
   width="2895"
   height="3840"
   viewBox="0 0 765.96873 1016"
   version="1.1"
   id="svg1"
   xml:space="preserve"
   inkscape:export-filename="6.svg"
   inkscape:export-xdpi="96"
   inkscape:export-ydpi="96"
   xmlns:inkscape="http://www.inkscape.org/namespaces/inkscape"
   xmlns:sodipodi="http://sodipodi.sourceforge.net/DTD/sodipodi-0.dtd"
   xmlns="http://www.w3.org/2000/svg"
   xmlns:svg="http://www.w3.org/2000/svg"><sodipodi:namedview
     id="namedview1"
     pagecolor="#ffffff"
     bordercolor="#000000"
     borderopacity="0.25"
     inkscape:showpageshadow="2"
     inkscape:pageopacity="0.0"
     inkscape:pagecheckerboard="0"
     inkscape:deskcolor="#d1d1d1"
     inkscape:document-units="mm"><inkscape:page
       x="0"
       y="0"
       width="765.96875"
       height="1016"
       id="page2"
       margin="0"
       bleed="0" /></sodipodi:namedview><defs
     id="defs1" /><g
     inkscape:label="Layer 1"
     inkscape:groupmode="layer"
     id="layer1"><path
       style="fill:#000000"
       d="m 243.22678,397.33813 c 0.11366,-26.104 0.10053,-25.83215 1.67039,-34.59428 8.67876,-48.44049 47.32522,-86.71933 95.75381,-94.84296 9.98533,-1.67498 4.71101,-1.56882 82.51651,-1.66097 l 70.87483,-0.0839 -1.42171,1.6434 c -1.68426,1.94688 -7.58916,7.41637 -10.94671,10.13955 -16.9785,13.77058 -38.20298,22.86098 -59.26667,25.38379 -1.89177,0.22658 -3.79677,0.45524 -4.23333,0.50815 -0.43656,0.0529 23.34617,0.11403 52.85052,0.13583 l 53.64427,0.0396 v 58.7375 58.73751 H 383.89518 243.12166 Z"
       id="path4" /></g></svg>
