<?xml version="1.0" encoding="UTF-8" standalone="no"?>
<!-- Created with Inkscape (http://www.inkscape.org/) -->

<svg
   xmlns:dc="http://purl.org/dc/elements/1.1/"
   xmlns:cc="http://creativecommons.org/ns#"
   xmlns:rdf="http://www.w3.org/1999/02/22-rdf-syntax-ns#"
   xmlns:svg="http://www.w3.org/2000/svg"
   xmlns="http://www.w3.org/2000/svg"
   version="1.1"
   width="300"
   height="70.893967"
   id="svg68808">
  <defs
     id="defs68810">
    <clipPath
       id="clipPath7871">
      <path
         d="m 167.244,464.173 54.212,0 0,15.449 -54.212,0 L 167.244,464.173 Z"
         id="path7873" />
    </clipPath>
  </defs>
  <metadata
     id="metadata68813">
    <rdf:RDF>
      <cc:Work
         rdf:about="">
        <dc:format>image/svg+xml</dc:format>
        <dc:type
           rdf:resource="http://purl.org/dc/dcmitype/StillImage" />
        <dc:title></dc:title>
      </cc:Work>
    </rdf:RDF>
  </metadata>
  <g
     transform="translate(-347.14286,-611.2009)"
     id="layer1">
    <g
       transform="matrix(5.899473,0,0,-5.899473,-647.86993,3431.8003)"
       id="g7867">
      <g
         clip-path="url(#clipPath7871)"
         id="g7869">
        <g
           transform="translate(218.6563,477.9624)"
           id="g7875">
          <path
             d="m 0,0 c 0.39,0 0.705,-0.316 0.705,-0.706 l 0.004,-10.309 c 0,-0.39 -0.316,-0.706 -0.706,-0.706 l -49.145,0 c -0.389,0 -0.705,0.316 -0.705,0.706 l 0.003,10.309 c 0,0.39 0.316,0.706 0.706,0.706 L 0,0 Z"
             id="path7877"
             style="fill:#ffed00;fill-opacity:1;fill-rule:nonzero;stroke:none" />
        </g>
        <g
           transform="translate(218.6563,477.9624)"
           id="g7879">
          <path
             d="m 0,0 c 0.39,0 0.705,-0.316 0.705,-0.706 l 0.004,-10.309 c 0,-0.39 -0.316,-0.706 -0.706,-0.706 l -49.145,0 c -0.389,0 -0.705,0.316 -0.705,0.706 l 0.003,10.309 c 0,0.39 0.316,0.706 0.706,0.706 L 0,0 Z"
             id="path7881"
             style="fill:none;stroke:#000000;stroke-width:0.296;stroke-linecap:butt;stroke-linejoin:round;stroke-miterlimit:4;stroke-opacity:1;stroke-dasharray:none" />
        </g>
        <g
           transform="translate(172.5578,471.0482)"
           id="g7883">
          <path
             d="M 0,0 0.813,0.48 0.804,-0.665 0,0 Z"
             id="path7885"
             style="fill:#000000;fill-opacity:1;fill-rule:nonzero;stroke:none" />
        </g>
        <g
           transform="translate(172.5578,471.0482)"
           id="g7887">
          <path
             d="M 0,0 0.813,0.48 0.804,-0.665 0,0 Z"
             id="path7889"
             style="fill:none;stroke:#000000;stroke-width:0.111;stroke-linecap:butt;stroke-linejoin:miter;stroke-miterlimit:4;stroke-opacity:1;stroke-dasharray:none" />
        </g>
        <g
           transform="translate(177.7593,469.3759)"
           id="g7891">
          <path
             d="M 0,0 C 0.185,-0.065 0.665,-0.046 0.785,0.148 0.905,0.342 0.573,0.536 0.573,0.536 L 0.065,0.674 -0.102,0.407 0,0 Z"
             id="path7893"
             style="fill:#009ee3;fill-opacity:1;fill-rule:nonzero;stroke:none" />
        </g>
        <g
           transform="translate(177.7593,469.3759)"
           id="g7895">
          <path
             d="M 0,0 C 0.185,-0.065 0.665,-0.046 0.785,0.148 0.905,0.342 0.573,0.536 0.573,0.536 L 0.065,0.674 -0.102,0.407 0,0 Z"
             id="path7897"
             style="fill:none;stroke:#000000;stroke-width:0.111;stroke-linecap:butt;stroke-linejoin:round;stroke-miterlimit:4;stroke-opacity:1;stroke-dasharray:none" />
        </g>
        <g
           transform="translate(177.9995,470.0042)"
           id="g7899">
          <path
             d="M 0,0 C -0.057,-0.076 -0.063,-0.562 0.065,-0.656"
             id="path7901"
             style="fill:none;stroke:#000000;stroke-width:0.111;stroke-linecap:butt;stroke-linejoin:round;stroke-miterlimit:4;stroke-opacity:1;stroke-dasharray:none" />
        </g>
        <g
           transform="translate(177.4277,469.4443)"
           id="g7903">
          <path
             d="M 0,0 C 0.118,-0.111 0.29,-0.12 0.384,-0.02 0.478,0.08 0.458,0.251 0.34,0.362 0.221,0.473 0.049,0.482 -0.044,0.382 -0.138,0.282 -0.118,0.111 0,0"
             id="path7905"
             style="fill:#000000;fill-opacity:1;fill-rule:nonzero;stroke:none" />
        </g>
        <g
           transform="translate(177.5976,469.6254)"
           id="g7907" />
        <g
           transform="translate(177.5468,470.734)"
           id="g7909">
          <path
             d="m 0,0 0,0.656 -0.388,-0.48 0,-0.481 L 0,0 Z"
             id="path7911"
             style="fill:#009ee3;fill-opacity:1;fill-rule:nonzero;stroke:none" />
        </g>
        <g
           transform="translate(177.5468,470.734)"
           id="g7913">
          <path
             d="m 0,0 0,0.656 -0.388,-0.48 0,-0.481 L 0,0 Z"
             id="path7915"
             style="fill:none;stroke:#000000;stroke-width:0.111;stroke-linecap:butt;stroke-linejoin:round;stroke-miterlimit:4;stroke-opacity:1;stroke-dasharray:none" />
        </g>
        <g
           transform="translate(177.7778,470.6232)"
           id="g7917">
          <path
             d="M 0,0 -0.564,-0.508 -0.517,-0.739 0.055,-0.758 0.231,-0.545 0,0 Z"
             id="path7919"
             style="fill:#009ee3;fill-opacity:1;fill-rule:nonzero;stroke:none" />
        </g>
        <g
           transform="translate(177.7778,470.6232)"
           id="g7921">
          <path
             d="M 0,0 -0.564,-0.508 -0.517,-0.739 0.055,-0.758 0.231,-0.545 0,0 Z"
             id="path7923"
             style="fill:none;stroke:#000000;stroke-width:0.111;stroke-linecap:butt;stroke-linejoin:round;stroke-miterlimit:4;stroke-opacity:1;stroke-dasharray:none" />
        </g>
        <g
           transform="translate(177.3621,470.7618)"
           id="g7925">
          <path
             d="m 0,0 c 0.148,0.092 0.591,0.277 0.647,0 0.064,-0.322 -0.825,-0.333 -0.619,-0.979 0.164,-0.516 -0.361,-0.508 -0.471,0 C -0.493,-0.754 -0.425,-0.249 0,0"
             id="path7927"
             style="fill:#009ee3;fill-opacity:1;fill-rule:nonzero;stroke:none" />
        </g>
        <g
           transform="translate(177.3621,470.7618)"
           id="g7929">
          <path
             d="m 0,0 c 0.148,0.092 0.591,0.277 0.647,0 0.064,-0.322 -0.825,-0.333 -0.619,-0.979 0.164,-0.516 -0.361,-0.508 -0.471,0 C -0.493,-0.754 -0.425,-0.249 0,0 Z"
             id="path7931"
             style="fill:none;stroke:#000000;stroke-width:0.111;stroke-linecap:butt;stroke-linejoin:round;stroke-miterlimit:4;stroke-opacity:1;stroke-dasharray:none" />
        </g>
        <g
           transform="translate(179.0343,469.9949)"
           id="g7933">
          <path
             d="m 0,0 -8.315,0 c 0,0 -0.684,0.009 -1.072,0.129 l 0,-0.526 c 0,0 0.296,0.111 1.072,0.101 l 8.352,0 L 0,0 Z"
             id="path7935"
             style="fill:#000000;fill-opacity:1;fill-rule:nonzero;stroke:none" />
        </g>
        <g
           transform="translate(172.8257,469.2743)"
           id="g7937">
          <path
             d="M 0,0 C 0.323,0.074 1.247,0.637 1.34,0.942 L 1.746,0.924 C 1.737,0.619 0.111,-0.647 -0.185,-0.647 L 0,0 Z"
             id="path7939"
             style="fill:#009ee3;fill-opacity:1;fill-rule:nonzero;stroke:none" />
        </g>
        <g
           transform="translate(172.8257,469.2743)"
           id="g7941">
          <path
             d="M 0,0 C 0.323,0.074 1.247,0.637 1.34,0.942 L 1.746,0.924 C 1.737,0.619 0.111,-0.647 -0.185,-0.647 L 0,0 Z"
             id="path7943"
             style="fill:none;stroke:#000000;stroke-width:0.111;stroke-linecap:butt;stroke-linejoin:miter;stroke-miterlimit:4;stroke-opacity:1;stroke-dasharray:none" />
        </g>
        <g
           transform="translate(175.9023,467.4634)"
           id="g7945">
          <path
             d="m 0,0 c -0.268,0.185 -1.146,0.51 -1.229,-0.028 -0.055,-0.36 0.194,-0.425 0.333,-0.425 0.138,0 0.342,0.093 0.36,0.296 0.023,0.25 0.323,0.046 0.453,0.018 C 0.046,-0.166 0,0 0,0"
             id="path7947"
             style="fill:#009ee3;fill-opacity:1;fill-rule:nonzero;stroke:none" />
        </g>
        <g
           transform="translate(175.9023,467.4634)"
           id="g7949">
          <path
             d="m 0,0 c -0.268,0.185 -1.146,0.51 -1.229,-0.028 -0.055,-0.36 0.194,-0.425 0.333,-0.425 0.138,0 0.342,0.093 0.36,0.296 0.023,0.25 0.323,0.046 0.453,0.018 C 0.046,-0.166 0,0 0,0 Z"
             id="path7951"
             style="fill:none;stroke:#000000;stroke-width:0.111;stroke-linecap:butt;stroke-linejoin:round;stroke-miterlimit:4;stroke-opacity:1;stroke-dasharray:none" />
        </g>
        <g
           transform="translate(176.3458,467.2694)"
           id="g7953">
          <path
             d="m 0,0 c 0.028,0.148 0.379,1.007 0.582,1.164 0.203,0.157 -0.323,0.009 -0.323,0.009 0,0 -1.044,-1.007 -0.989,-1.552 L 0,0 Z"
             id="path7955"
             style="fill:#009ee3;fill-opacity:1;fill-rule:nonzero;stroke:none" />
        </g>
        <g
           transform="translate(176.3458,467.2694)"
           id="g7957">
          <path
             d="m 0,0 c 0.028,0.148 0.379,1.007 0.582,1.164 0.203,0.157 -0.323,0.009 -0.323,0.009 0,0 -1.044,-1.007 -0.989,-1.552 L 0,0 Z"
             id="path7959"
             style="fill:none;stroke:#000000;stroke-width:0.111;stroke-linecap:butt;stroke-linejoin:round;stroke-miterlimit:4;stroke-opacity:1;stroke-dasharray:none" />
        </g>
        <g
           transform="translate(177.7224,469.5792)"
           id="g7961">
          <path
             d="M 0,0 C 0.185,-0.018 0.601,0.037 0.748,0.222 M 0.416,0.037 C 0.407,-0.102 0.588,-0.166 0.665,-0.166"
             id="path7963"
             style="fill:none;stroke:#000000;stroke-width:0.111;stroke-linecap:butt;stroke-linejoin:round;stroke-miterlimit:4;stroke-opacity:1;stroke-dasharray:none" />
        </g>
        <g
           transform="translate(177.9995,469.884)"
           id="g7965">
          <path
             d="M 0,0 C -0.11,0.055 -0.38,0.654 0.046,0.776 0.564,0.924 0.76,0.469 0.721,0.425 c 0,0 -0.489,0.064 -0.462,-0.388 C 0.268,-0.12 0.086,-0.043 0,0"
             id="path7967"
             style="fill:#009ee3;fill-opacity:1;fill-rule:nonzero;stroke:none" />
        </g>
        <g
           transform="translate(177.9995,469.884)"
           id="g7969">
          <path
             d="M 0,0 C -0.11,0.055 -0.38,0.654 0.046,0.776 0.564,0.924 0.76,0.469 0.721,0.425 c 0,0 -0.489,0.064 -0.462,-0.388 C 0.268,-0.12 0.086,-0.043 0,0 Z"
             id="path7971"
             style="fill:none;stroke:#000000;stroke-width:0.111;stroke-linecap:butt;stroke-linejoin:round;stroke-miterlimit:4;stroke-opacity:1;stroke-dasharray:none" />
        </g>
        <g
           transform="translate(178.7109,470.3091)"
           id="g7973">
          <path
             d="m 0,0 c -0.158,0.057 -0.508,-0.065 -0.462,-0.425 0.046,-0.36 0.37,-0.382 0.444,-0.36 C 0.139,-0.739 0.36,-0.129 0,0"
             id="path7975"
             style="fill:#009ee3;fill-opacity:1;fill-rule:nonzero;stroke:none" />
        </g>
        <g
           transform="translate(178.7109,470.3091)"
           id="g7977">
          <path
             d="m 0,0 c -0.158,0.057 -0.508,-0.065 -0.462,-0.425 0.046,-0.36 0.37,-0.382 0.444,-0.36 C 0.139,-0.739 0.36,-0.129 0,0 Z"
             id="path7979"
             style="fill:none;stroke:#000000;stroke-width:0.111;stroke-linecap:butt;stroke-linejoin:round;stroke-miterlimit:4;stroke-opacity:1;stroke-dasharray:none" />
        </g>
        <g
           transform="translate(177.981,472.6557)"
           id="g7981">
          <path
             d="m 0,0 0.536,0.61 0.268,1.543 -0.961,0.554 c 0,0.176 0.046,0.333 -0.305,0.351 C -0.813,3.077 -1.109,2.781 -1.109,2.781 L -0.767,2.356 -1.469,1.672 -1.515,1.303 0,0 Z"
             id="path7983"
             style="fill:#009ee3;fill-opacity:1;fill-rule:nonzero;stroke:none" />
        </g>
        <g
           transform="translate(177.981,472.6557)"
           id="g7985">
          <path
             d="m 0,0 0.536,0.61 0.268,1.543 -0.961,0.554 c 0,0.176 0.046,0.333 -0.305,0.351 C -0.813,3.077 -1.109,2.781 -1.109,2.781 L -0.767,2.356 -1.469,1.672 -1.515,1.303 0,0 Z"
             id="path7987"
             style="fill:none;stroke:#000000;stroke-width:0.111;stroke-linecap:butt;stroke-linejoin:round;stroke-miterlimit:4;stroke-opacity:1;stroke-dasharray:none" />
        </g>
        <g
           transform="translate(177.9534,473.6074)"
           id="g7989">
          <path
             d="m 0,0 0.004,0.005 c -0.092,-0.095 -0.221,-0.154 -0.364,-0.154 -0.282,0 -0.51,0.228 -0.51,0.509 0,0.282 0.228,0.51 0.51,0.51 0.115,0 0.222,-0.038 0.307,-0.103 l -0.002,0 0.933,0.563 0.97,-0.572 C 2.088,0.61 2.088,0.379 1.839,0.185 L 0.767,-0.582 0,0 Z"
             id="path7991"
             style="fill:#009ee3;fill-opacity:1;fill-rule:nonzero;stroke:none" />
        </g>
        <g
           transform="translate(177.9534,473.6074)"
           id="g7993">
          <path
             d="m 0,0 0.004,0.005 c -0.092,-0.095 -0.221,-0.154 -0.364,-0.154 -0.282,0 -0.51,0.228 -0.51,0.509 0,0.282 0.228,0.51 0.51,0.51 0.115,0 0.222,-0.038 0.307,-0.103 l -0.002,0 0.933,0.563 0.97,-0.572 C 2.088,0.61 2.088,0.379 1.839,0.185 L 0.767,-0.582 0,0 Z"
             id="path7995"
             style="fill:none;stroke:#000000;stroke-width:0.111;stroke-linecap:butt;stroke-linejoin:round;stroke-miterlimit:4;stroke-opacity:1;stroke-dasharray:none" />
        </g>
        <g
           transform="translate(177.6392,473.0438)"
           id="g7997">
          <path
             d="M 0,0 -0.67,0.558 -3.306,-2.704 -2.652,-3.317 0,0 Z"
             id="path7999"
             style="fill:#00963f;fill-opacity:1;fill-rule:nonzero;stroke:none" />
        </g>
        <g
           transform="translate(177.6317,473.0341)"
           id="g8001">
          <path
             d="M 0,0 0.737,-0.619 -1.96,-3.945 -2.644,-3.307 0,0 Z"
             id="path8003"
             style="fill:#e3000f;fill-opacity:1;fill-rule:nonzero;stroke:none" />
        </g>
        <g
           transform="translate(178.9419,469.0248)"
           id="g8005">
          <path
             d="M 0,0 C 1.099,0.443 6.578,0.656 6.578,0.656 L 39.543,0.989 6.652,1.062 c 0,0 -5.894,0.102 -6.652,0.592 L 0,0 Z"
             id="path8007"
             style="fill:#000000;fill-opacity:1;fill-rule:nonzero;stroke:none" />
        </g>
        <g
           transform="translate(178.9419,469.0248)"
           id="g8009">
          <path
             d="M 0,0 C 1.099,0.443 6.578,0.656 6.578,0.656 L 39.543,0.989 6.652,1.062 c 0,0 -5.894,0.102 -6.652,0.592 L 0,0 Z"
             id="path8011"
             style="fill:none;stroke:#000000;stroke-width:0.037;stroke-linecap:butt;stroke-linejoin:miter;stroke-miterlimit:4;stroke-opacity:1;stroke-dasharray:none" />
        </g>
        <g
           transform="translate(180.2169,470.3922)"
           id="g8013">
          <path
             d="M 0,0 C 0.102,-0.028 0.721,-0.092 0.795,-0.102 L 0.425,-1.053 C 0.342,-1.035 -0.647,-1.22 -0.702,-1.229 L 0,0 Z"
             id="path8015"
             style="fill:#e3000f;fill-opacity:1;fill-rule:nonzero;stroke:none" />
        </g>
        <g
           transform="translate(181.8707,470.2166)"
           id="g8017">
          <path
             d="M 0,0 C 0.129,-0.009 0.573,-0.055 1.192,-0.065 L 1.072,-0.637 C 0.453,-0.639 -0.212,-0.777 -0.277,-0.785 L 0,0 Z"
             id="path8019"
             style="fill:#e3000f;fill-opacity:1;fill-rule:nonzero;stroke:none" />
        </g>
        <g
           transform="translate(177.593,473.6671)"
           id="g8021">
          <path
             d="m 0,0 c 0.166,0 0.301,0.135 0.301,0.301 0,0.166 -0.135,0.3 -0.301,0.3 -0.166,0 -0.301,-0.134 -0.301,-0.3 C -0.301,0.135 -0.166,0 0,0 Z"
             id="path8023"
             style="fill:none;stroke:#000000;stroke-width:0.111;stroke-linecap:butt;stroke-linejoin:miter;stroke-miterlimit:4;stroke-opacity:1;stroke-dasharray:none" />
        </g>
        <g
           transform="translate(176.2811,474.1894)"
           id="g8025">
          <path
             d="M 0,0 2.088,-1.774 -0.61,-5.1 -2.605,-3.234 0,0 z m 1.358,-1.146 -2.651,-3.316 m 1.986,3.871 -2.642,-3.271"
             id="path8027"
             style="fill:none;stroke:#000000;stroke-width:0.111;stroke-linecap:butt;stroke-linejoin:round;stroke-miterlimit:4;stroke-opacity:1;stroke-dasharray:none" />
        </g>
        <g
           transform="translate(176.9694,473.6014)"
           id="g8029">
          <path
             d="M 0,0 -0.688,0.588 -3.294,-2.646 -2.636,-3.262 0,0 Z"
             id="path8031"
             style="fill:#000000;fill-opacity:1;fill-rule:nonzero;stroke:none" />
        </g>
        <path
           d="m 176.096,474.319 -2.864,0 0,-4.194 2.864,0 L 176.096,474.319 Z"
           id="path8033"
           style="fill:#f39100;fill-opacity:1;fill-rule:nonzero;stroke:#000000;stroke-width:0.111;stroke-linecap:butt;stroke-linejoin:round;stroke-miterlimit:4;stroke-opacity:1;stroke-dasharray:none" />
        <g
           transform="translate(174.6643,472.2215)"
           id="g8035">
          <path
             d=""
             id="path8037"
             style="fill:#f39100;fill-opacity:1;fill-rule:nonzero;stroke:#000000;stroke-width:0.111;stroke-linecap:butt;stroke-linejoin:round;stroke-miterlimit:4;stroke-opacity:1;stroke-dasharray:none" />
        </g>
        <g
           transform="translate(179.5979,474.1894)"
           id="g8039">
          <path
             d=""
             id="path8041"
             style="fill:#f39100;fill-opacity:1;fill-rule:nonzero;stroke:#000000;stroke-width:0.111;stroke-linecap:butt;stroke-linejoin:round;stroke-miterlimit:4;stroke-opacity:1;stroke-dasharray:none" />
        </g>
        <g
           transform="translate(179.2209,474.4407)"
           id="g8043">
          <path
             d=""
             id="path8045"
             style="fill:#f39100;fill-opacity:1;fill-rule:nonzero;stroke:#000000;stroke-width:0.111;stroke-linecap:butt;stroke-linejoin:round;stroke-miterlimit:4;stroke-opacity:1;stroke-dasharray:none" />
        </g>
        <g
           transform="translate(178.844,474.2577)"
           id="g8047">
          <path
             d=""
             id="path8049"
             style="fill:#f39100;fill-opacity:1;fill-rule:nonzero;stroke:#000000;stroke-width:0.111;stroke-linecap:butt;stroke-linejoin:round;stroke-miterlimit:4;stroke-opacity:1;stroke-dasharray:none" />
        </g>
        <g
           transform="translate(179.2209,473.7533)"
           id="g8051">
          <path
             d=""
             id="path8053"
             style="fill:#f39100;fill-opacity:1;fill-rule:nonzero;stroke:#000000;stroke-width:0.111;stroke-linecap:butt;stroke-linejoin:round;stroke-miterlimit:4;stroke-opacity:1;stroke-dasharray:none" />
        </g>
        <g
           transform="translate(178.844,473.9363)"
           id="g8055">
          <path
             d=""
             id="path8057"
             style="fill:#f39100;fill-opacity:1;fill-rule:nonzero;stroke:#000000;stroke-width:0.111;stroke-linecap:butt;stroke-linejoin:round;stroke-miterlimit:4;stroke-opacity:1;stroke-dasharray:none" />
        </g>
        <g
           transform="translate(179.692,473.9861)"
           id="g8059">
          <path
             d="m 0,0 c 0,-0.047 -0.038,-0.085 -0.085,-0.085 -0.047,0 -0.085,0.038 -0.085,0.085 l 0,0.185 c 0,0.047 0.038,0.085 0.085,0.085 C -0.038,0.27 0,0.232 0,0.185 L 0,0 Z"
             id="path8061"
             style="fill:#000000;fill-opacity:1;fill-rule:nonzero;stroke:none" />
        </g>
        <g
           transform="translate(179.692,473.9861)"
           id="g8063">
          <path
             d="m 0,0 c 0,-0.047 -0.038,-0.085 -0.085,-0.085 -0.047,0 -0.085,0.038 -0.085,0.085 l 0,0.185 c 0,0.047 0.038,0.085 0.085,0.085 C -0.038,0.27 0,0.232 0,0.185 L 0,0 Z"
             id="path8065"
             style="fill:none;stroke:#000000;stroke-width:0.074;stroke-linecap:butt;stroke-linejoin:miter;stroke-miterlimit:4;stroke-opacity:1;stroke-dasharray:none" />
        </g>
        <g
           transform="translate(179.1453,473.7348)"
           id="g8067">
          <path
             d="m 0,0 c 0,-0.047 0.038,-0.085 0.085,-0.085 0.047,0 0.085,0.038 0.085,0.085 l 0,0.687 C 0.17,0.734 0.132,0.772 0.085,0.772 0.038,0.772 0,0.734 0,0.687 L 0,0 Z"
             id="path8069"
             style="fill:#000000;fill-opacity:1;fill-rule:nonzero;stroke:none" />
        </g>
        <g
           transform="translate(179.1453,473.7348)"
           id="g8071">
          <path
             d="m 0,0 c 0,-0.047 0.038,-0.085 0.085,-0.085 0.047,0 0.085,0.038 0.085,0.085 l 0,0.687 C 0.17,0.734 0.132,0.772 0.085,0.772 0.038,0.772 0,0.734 0,0.687 L 0,0 Z"
             id="path8073"
             style="fill:none;stroke:#000000;stroke-width:0.074;stroke-linecap:butt;stroke-linejoin:miter;stroke-miterlimit:4;stroke-opacity:1;stroke-dasharray:none" />
        </g>
        <g
           transform="translate(178.7684,473.9179)"
           id="g8075">
          <path
             d="m 0,0 c 0,-0.047 0.038,-0.085 0.085,-0.085 0.047,0 0.085,0.038 0.085,0.085 l 0,0.321 C 0.17,0.368 0.132,0.406 0.085,0.406 0.038,0.406 0,0.368 0,0.321 L 0,0 Z"
             id="path8077"
             style="fill:#000000;fill-opacity:1;fill-rule:nonzero;stroke:none" />
        </g>
        <g
           transform="translate(178.7684,473.9179)"
           id="g8079">
          <path
             d="m 0,0 c 0,-0.047 0.038,-0.085 0.085,-0.085 0.047,0 0.085,0.038 0.085,0.085 l 0,0.321 C 0.17,0.368 0.132,0.406 0.085,0.406 0.038,0.406 0,0.368 0,0.321 L 0,0 Z"
             id="path8081"
             style="fill:none;stroke:#000000;stroke-width:0.074;stroke-linecap:butt;stroke-linejoin:miter;stroke-miterlimit:4;stroke-opacity:1;stroke-dasharray:none" />
        </g>
        <g
           transform="translate(174.1561,473.2563)"
           id="g8083">
          <path
             d="m 0,0 -0.517,-0.37 0,-0.656 0.517,-0.425 0.517,0.425 0,0.656 L 0,0 Z"
             id="path8085"
             style="fill:#ffffff;fill-opacity:1;fill-rule:nonzero;stroke:none" />
        </g>
        <g
           transform="translate(174.1561,473.2563)"
           id="g8087">
          <path
             d="m 0,0 -0.517,-0.37 0,-0.656 0.517,-0.425 0.517,0.425 0,0.656 L 0,0 Z"
             id="path8089"
             style="fill:none;stroke:#000000;stroke-width:0.074;stroke-linecap:butt;stroke-linejoin:round;stroke-miterlimit:4;stroke-opacity:1;stroke-dasharray:none" />
        </g>
        <g
           transform="translate(175.1909,473.2563)"
           id="g8091">
          <path
             d="m 0,0 0.517,-0.37 0,-0.656 L 0,-1.451 l -0.517,0.425 0,0.656 L 0,0 Z"
             id="path8093"
             style="fill:#ffffff;fill-opacity:1;fill-rule:nonzero;stroke:none" />
        </g>
        <g
           transform="translate(175.1909,473.2563)"
           id="g8095">
          <path
             d="m 0,0 0.517,-0.37 0,-0.656 L 0,-1.451 l -0.517,0.425 0,0.656 L 0,0 Z"
             id="path8097"
             style="fill:none;stroke:#000000;stroke-width:0.074;stroke-linecap:butt;stroke-linejoin:round;stroke-miterlimit:4;stroke-opacity:1;stroke-dasharray:none" />
        </g>
        <g
           transform="translate(174.6735,472.2307)"
           id="g8099">
          <path
             d="m 0,0 0.517,-0.37 0,-0.692 L 0,-1.487 l -0.517,0.425 0,0.692 L 0,0 Z"
             id="path8101"
             style="fill:#ffffff;fill-opacity:1;fill-rule:nonzero;stroke:none" />
        </g>
        <g
           transform="translate(174.6735,472.2307)"
           id="g8103">
          <path
             d="m 0,0 0.517,-0.37 0,-0.692 L 0,-1.487 l -0.517,0.425 0,0.692 L 0,0 Z"
             id="path8105"
             style="fill:none;stroke:#000000;stroke-width:0.074;stroke-linecap:butt;stroke-linejoin:round;stroke-miterlimit:4;stroke-opacity:1;stroke-dasharray:none" />
        </g>
        <g
           transform="translate(174.4398,472.3047)"
           id="g8107">
          <path
             d="m 0,0 -0.451,0 0,0.531 0.445,0 0,-0.063 -0.362,0 0,-0.163 0.334,0 0,-0.064 -0.334,0 0,-0.177 L 0,0.064 0,0 Z"
             id="path8109"
             style="fill:#000000;fill-opacity:1;fill-rule:nonzero;stroke:none" />
        </g>
        <g
           transform="translate(175.1617,472.3139)"
           id="g8111">
          <path
             d="m 0,0 -0.082,0 0,0.531 0.274,0 c 0.113,0 0.181,-0.063 0.181,-0.149 0,-0.074 -0.048,-0.158 -0.181,-0.158 L 0,0.224 0,0 z m 0,0.286 0.164,0 c 0.074,0 0.124,0.023 0.124,0.095 0,0.067 -0.052,0.089 -0.121,0.089 L 0,0.47 0,0.286 Z"
             id="path8113"
             style="fill:#000000;fill-opacity:1;fill-rule:nonzero;stroke:none" />
        </g>
        <g
           transform="translate(174.9081,471.2699)"
           id="g8115">
          <path
             d="M 0,0 0,0.314 C 0,0.329 0.002,0.397 0.002,0.446 L 0,0.446 -0.172,0 l -0.081,0 -0.172,0.445 -0.002,0 c 0,-0.048 0.002,-0.116 0.002,-0.131 l 0,-0.314 -0.08,0 0,0.531 0.118,0 0.174,-0.449 0.002,0 0.174,0.449 0.117,0 L 0.08,0 0,0 Z"
             id="path8117"
             style="fill:#000000;fill-opacity:1;fill-rule:nonzero;stroke:none" />
        </g>
        <g
           transform="translate(176.2072,469.7455)"
           id="g8119">
          <path
             d="m 0,0 c 0.222,-0.065 0.758,-0.573 0.804,-0.758 l 0.36,0.213 -0.055,-0.878 -1.063,0.176 0.379,0.231 c -0.009,0.175 -0.462,0.619 -0.702,0.674 L 0,0 Z"
             id="path8121"
             style="fill:#009ee3;fill-opacity:1;fill-rule:nonzero;stroke:none" />
        </g>
        <g
           transform="translate(176.2072,469.7455)"
           id="g8123">
          <path
             d="m 0,0 c 0.222,-0.065 0.758,-0.573 0.804,-0.758 l 0.36,0.213 -0.055,-0.878 -1.063,0.176 0.379,0.231 c -0.009,0.175 -0.462,0.619 -0.702,0.674 L 0,0 Z"
             id="path8125"
             style="fill:none;stroke:#000000;stroke-width:0.111;stroke-linecap:butt;stroke-linejoin:miter;stroke-miterlimit:4;stroke-opacity:1;stroke-dasharray:none" />
        </g>
        <g
           transform="translate(177.3713,469.2004)"
           id="g8127">
          <path
             d="M 0,0 -0.582,-0.333"
             id="path8129"
             style="fill:#009ee3;fill-opacity:1;fill-rule:nonzero;stroke:#000000;stroke-width:0.111;stroke-linecap:butt;stroke-linejoin:miter;stroke-miterlimit:4;stroke-opacity:1;stroke-dasharray:none" />
        </g>
        <g
           transform="translate(175.6159,466.8906)"
           id="g8131">
          <path
             d="M 0,0 2.384,0 C 1.755,0.868 0.157,0.499 0,0"
             id="path8133"
             style="fill:#009ee3;fill-opacity:1;fill-rule:nonzero;stroke:none" />
        </g>
        <g
           transform="translate(175.6159,466.8906)"
           id="g8135">
          <path
             d="M 0,0 2.384,0 C 1.755,0.868 0.157,0.499 0,0 Z"
             id="path8137"
             style="fill:none;stroke:#000000;stroke-width:0.111;stroke-linecap:butt;stroke-linejoin:round;stroke-miterlimit:4;stroke-opacity:1;stroke-dasharray:none" />
        </g>
        <g
           transform="translate(176.2256,466.8906)"
           id="g8139">
          <path
             d="M 0,0 C 0,0.12 0.185,0.443 0.536,0.517 M 0.896,0 C 0.887,0.148 0.97,0.379 1.257,0.397"
             id="path8141"
             style="fill:none;stroke:#000000;stroke-width:0.111;stroke-linecap:butt;stroke-linejoin:round;stroke-miterlimit:4;stroke-opacity:1;stroke-dasharray:none" />
        </g>
        <g
           transform="translate(174.8441,467.0816)"
           id="g8143">
          <path
             d="M 0,0 C 0.169,-0.097 0.365,-0.047 0.45,0.1 0.534,0.247 0.465,0.408 0.296,0.505 0.127,0.602 -0.032,0.571 -0.116,0.423 -0.201,0.276 -0.169,0.097 0,0"
             id="path8145"
             style="fill:#000000;fill-opacity:1;fill-rule:nonzero;stroke:none" />
        </g>
        <g
           transform="translate(174.8441,467.0816)"
           id="g8147">
          <path
             d="M 0,0 C 0.169,-0.097 0.365,-0.047 0.45,0.1 0.534,0.247 0.465,0.408 0.296,0.505 0.127,0.602 -0.032,0.571 -0.116,0.423 -0.201,0.276 -0.169,0.097 0,0 Z"
             id="path8149"
             style="fill:none;stroke:#000000;stroke-width:0.111;stroke-linecap:butt;stroke-linejoin:round;stroke-miterlimit:4;stroke-opacity:1;stroke-dasharray:none" />
        </g>
        <g
           transform="translate(174.9691,467.261)"
           id="g8151">
          <path
             d="M 0,0 C 0.051,0 0.092,0.041 0.092,0.092 0.092,0.142 0.051,0.183 0,0.183 -0.051,0.183 -0.092,0.142 -0.092,0.092 -0.092,0.041 -0.051,0 0,0"
             id="path8153"
             style="fill:#009ee3;fill-opacity:1;fill-rule:nonzero;stroke:none" />
        </g>
        <g
           transform="translate(174.9691,467.3526)"
           id="g8155" />
        <g
           transform="translate(172.6225,471.0944)"
           id="g8157">
          <path
             d="m 0,0 c 0,0 -1.02,0.498 -1.94,-1.21 -0.13,-0.241 0.136,-0.835 0.222,-0.702 0.461,0.72 0.96,1.274 1.293,1.256 C -0.028,-0.678 0,0 0,0"
             id="path8159"
             style="fill:#009ee3;fill-opacity:1;fill-rule:nonzero;stroke:none" />
        </g>
        <g
           transform="translate(172.6225,471.0944)"
           id="g8161">
          <path
             d="m 0,0 c 0,0 -1.02,0.498 -1.94,-1.21 -0.13,-0.241 0.136,-0.835 0.222,-0.702 0.461,0.72 0.96,1.274 1.293,1.256 C -0.028,-0.678 0,0 0,0 Z"
             id="path8163"
             style="fill:none;stroke:#000000;stroke-width:0.111;stroke-linecap:butt;stroke-linejoin:miter;stroke-miterlimit:4;stroke-opacity:1;stroke-dasharray:none" />
        </g>
        <g
           transform="translate(172.1236,471.1406)"
           id="g8165">
          <path
             d="m 0,0 c -0.148,-0.296 -0.043,-1.587 0.111,-1.774 l 0.277,0.092 c 0,0 -0.111,0.98 0.111,1.553 C 0.594,0.117 0,0 0,0"
             id="path8167"
             style="fill:#009ee3;fill-opacity:1;fill-rule:nonzero;stroke:none" />
        </g>
        <g
           transform="translate(172.1236,471.1406)"
           id="g8169">
          <path
             d="m 0,0 c -0.148,-0.296 -0.043,-1.587 0.111,-1.774 l 0.277,0.092 c 0,0 -0.111,0.98 0.111,1.553 C 0.594,0.117 0,0 0,0 Z"
             id="path8171"
             style="fill:none;stroke:#000000;stroke-width:0.111;stroke-linecap:butt;stroke-linejoin:miter;stroke-miterlimit:4;stroke-opacity:1;stroke-dasharray:none" />
        </g>
        <g
           transform="translate(171.6062,470.965)"
           id="g8173">
          <path
             d="M 0,0 C 0.033,0.125 -0.212,-0.689 0.018,-0.85"
             id="path8175"
             style="fill:none;stroke:#000000;stroke-width:0.111;stroke-linecap:butt;stroke-linejoin:miter;stroke-miterlimit:4;stroke-opacity:1;stroke-dasharray:none" />
        </g>
        <g
           transform="translate(171.0426,470.4384)"
           id="g8177">
          <path
             d="M 0,0 C -0.093,-0.385 -0.018,-0.837 0.111,-0.887"
             id="path8179"
             style="fill:none;stroke:#000000;stroke-width:0.074;stroke-linecap:butt;stroke-linejoin:miter;stroke-miterlimit:4;stroke-opacity:1;stroke-dasharray:none" />
        </g>
        <g
           transform="translate(173.2045,470.0873)"
           id="g8181">
          <path
             d="M 0,0 -1.501,-1.109 -0.554,-1.497 0,0 Z"
             id="path8183"
             style="fill:#009ee3;fill-opacity:1;fill-rule:nonzero;stroke:none" />
        </g>
        <g
           transform="translate(173.2045,470.0873)"
           id="g8185">
          <path
             d="M 0,0 -1.501,-1.109 -0.554,-1.497 0,0 Z"
             id="path8187"
             style="fill:none;stroke:#000000;stroke-width:0.111;stroke-linecap:butt;stroke-linejoin:miter;stroke-miterlimit:4;stroke-opacity:1;stroke-dasharray:none" />
        </g>
        <g
           transform="translate(176.2538,475.173)"
           id="g8189">
          <path
             d="M 0,0 C 0.027,-0.115 0.304,-0.3 0.304,-0.3 0.545,0.162 0.936,0.096 1.228,0.338 1.552,0.605 1.404,0.966 1.275,1.067 1.17,1.15 1.071,1.245 0.598,1.244 0.221,1.243 -0.287,1.382 0.12,1.862 c 0,0 -0.167,0.028 -0.351,-0.222 0,0 -0.111,0.065 0,0.213 0,0 -0.268,-0.194 -0.416,-0.434 -0.046,-0.075 0.086,0.184 0.097,0.267 0.041,0.324 -0.528,0.673 -0.91,0 -0.268,-0.471 -0.915,-0.425 -0.684,0.167 0,0 -0.36,-0.028 -0.49,-0.287 -0.129,-0.258 -0.021,-0.001 -0.092,0.148 0,0 -0.018,-0.231 -0.12,-0.185 0,0 0,0.047 -0.028,0.13 0,0 -0.064,-0.111 -0.12,-0.157 -0.156,-0.13 -0.737,0.142 -0.905,-0.194 -0.093,-0.185 -0.462,-0.37 -0.629,-0.213 0,0 0.148,-0.443 0.425,-0.48 0,0 -0.12,-0.136 -0.249,-0.12 -0.074,0.009 0.293,-0.242 0.536,-0.148 0,0 0.009,-0.213 0.083,-0.361 0,0.001 -0.028,0.139 0.055,0.204 0.014,0.01 0.09,0.049 0.095,0.001 0.007,-0.075 0.073,-0.146 0.073,-0.146 0.017,0.052 0.052,0.102 0.052,0.102 0.141,-0.031 0.482,-0.175 0.63,-0.299 0.129,-0.108 0.352,-0.186 0.481,-0.22 0.111,-0.03 -0.028,-0.13 -0.028,-0.13 0.185,0.1 0.248,0.078 0.296,0.073 0,0 0.074,-0.139 -0.102,-0.204 0,0 0.194,-0.046 0.434,0.047 0.241,0.092 0.638,-0.01 0.998,0.046 0.106,0.016 0.434,0.219 0.499,0.332 C -0.185,-0.096 0,0 0,0"
             id="path8191"
             style="fill:#e3000f;fill-opacity:1;fill-rule:nonzero;stroke:none" />
        </g>
        <g
           transform="translate(176.2538,475.173)"
           id="g8193">
          <path
             d="M 0,0 C 0.027,-0.115 0.304,-0.3 0.304,-0.3 0.545,0.162 0.936,0.096 1.228,0.338 1.552,0.605 1.404,0.966 1.275,1.067 1.17,1.15 1.071,1.245 0.598,1.244 0.221,1.243 -0.287,1.382 0.12,1.862 c 0,0 -0.167,0.028 -0.351,-0.222 0,0 -0.111,0.065 0,0.213 0,0 -0.268,-0.194 -0.416,-0.434 -0.046,-0.075 0.086,0.184 0.097,0.267 0.041,0.324 -0.528,0.673 -0.91,0 -0.268,-0.471 -0.915,-0.425 -0.684,0.167 0,0 -0.36,-0.028 -0.49,-0.287 -0.129,-0.258 -0.021,-0.001 -0.092,0.148 0,0 -0.018,-0.231 -0.12,-0.185 0,0 0,0.047 -0.028,0.13 0,0 -0.064,-0.111 -0.12,-0.157 -0.156,-0.13 -0.737,0.142 -0.905,-0.194 -0.093,-0.185 -0.462,-0.37 -0.629,-0.213 0,0 0.148,-0.443 0.425,-0.48 0,0 -0.12,-0.136 -0.249,-0.12 -0.074,0.009 0.293,-0.242 0.536,-0.148 0,0 0.009,-0.213 0.083,-0.361 0,0.001 -0.028,0.139 0.055,0.204 0.014,0.01 0.09,0.049 0.095,0.001 0.007,-0.075 0.073,-0.146 0.073,-0.146 0.017,0.052 0.052,0.102 0.052,0.102 0.141,-0.031 0.482,-0.175 0.63,-0.299 0.129,-0.108 0.352,-0.186 0.481,-0.22 0.111,-0.03 -0.028,-0.13 -0.028,-0.13 0.185,0.1 0.248,0.078 0.296,0.073 0,0 0.074,-0.139 -0.102,-0.204 0,0 0.194,-0.046 0.434,0.047 0.241,0.092 0.638,-0.01 0.998,0.046 0.106,0.016 0.434,0.219 0.499,0.332 C -0.185,-0.096 0,0 0,0 Z"
             id="path8195"
             style="fill:none;stroke:#000000;stroke-width:0.111;stroke-linecap:butt;stroke-linejoin:miter;stroke-miterlimit:4;stroke-opacity:1;stroke-dasharray:none" />
        </g>
        <g
           transform="translate(183.3397,472.009)"
           id="g8197">
          <path
             d="m 0,0 c 0.222,0 0.832,-0.092 0.85,0.647 l 0,1.977 C 0.813,3.252 0.296,3.215 0,3.215 l 0,0.628 4.01,0 c 0.517,0 0.72,-0.406 0.72,-0.85 l 0,-1.164 C 4.73,1.312 4.546,1.035 4.01,1.035 l -1.589,0 c 0,0 -0.019,-0.185 0,-0.481 C 2.455,0.001 2.895,0 3.215,0 l 0,-0.554 L 0,-0.554 0,0 z m 3.234,1.885 0,0.998 C 3.224,3.051 3.147,3.134 2.987,3.16 l -0.566,0 0,-1.589 0.562,0.001 c 0.209,0.029 0.251,0.116 0.251,0.313"
             id="path8199"
             style="fill:#e3000f;fill-opacity:1;fill-rule:nonzero;stroke:none" />
        </g>
        <g
           transform="translate(183.3397,472.009)"
           id="g8201">
          <path
             d="m 0,0 c 0.222,0 0.832,-0.092 0.85,0.647 l 0,1.977 C 0.813,3.252 0.296,3.215 0,3.215 l 0,0.628 4.01,0 c 0.517,0 0.72,-0.406 0.72,-0.85 l 0,-1.164 C 4.73,1.312 4.546,1.035 4.01,1.035 l -1.589,0 c 0,0 -0.019,-0.185 0,-0.481 C 2.455,0.001 2.895,0 3.215,0 l 0,-0.554 L 0,-0.554 0,0 z m 3.234,1.885 0,0.998 C 3.224,3.051 3.147,3.134 2.987,3.16 l -0.566,0 0,-1.589 0.562,0.001 C 3.192,1.601 3.234,1.688 3.234,1.885 Z"
             id="path8203"
             style="fill:none;stroke:#000000;stroke-width:0.222;stroke-linecap:butt;stroke-linejoin:round;stroke-miterlimit:4;stroke-opacity:1;stroke-dasharray:none" />
        </g>
        <g
           transform="translate(191.2482,472.009)"
           id="g8205">
          <path
             d="m 0,0 0,-0.554 -2.79,0 0,0.554 c 0.369,0 0.665,-0.018 0.831,0.573 0.167,0.591 1.035,3.27 1.035,3.27 l 2.328,0 0.98,-3.344 C 2.531,0.055 2.864,0 3.271,0 l 0,-0.554 -3.031,0 0,0.554 c 0.277,0 0.85,-0.055 0.702,0.425 l -0.221,0.573 -1.035,0 -0.24,-0.573 C -0.758,0 -0.203,0 0,0 m -0.203,1.478 0.794,0 L 0.222,2.901 -0.203,1.478 Z"
             id="path8207"
             style="fill:#e3000f;fill-opacity:1;fill-rule:nonzero;stroke:none" />
        </g>
        <g
           transform="translate(191.2482,472.009)"
           id="g8209">
          <path
             d="m 0,0 0,-0.554 -2.79,0 0,0.554 c 0.369,0 0.665,-0.018 0.831,0.573 0.167,0.591 1.035,3.27 1.035,3.27 l 2.328,0 0.98,-3.344 C 2.531,0.055 2.864,0 3.271,0 l 0,-0.554 -3.031,0 0,0.554 c 0.277,0 0.85,-0.055 0.702,0.425 l -0.221,0.573 -1.035,0 -0.24,-0.573 C -0.758,0 -0.203,0 0,0 z m -0.203,1.478 0.794,0 L 0.222,2.901 -0.203,1.478 Z"
             id="path8211"
             style="fill:none;stroke:#000000;stroke-width:0.222;stroke-linecap:butt;stroke-linejoin:round;stroke-miterlimit:4;stroke-opacity:1;stroke-dasharray:none" />
        </g>
        <g
           transform="translate(195.2025,475.8524)"
           id="g8213">
          <path
             d="m 0,0 0,-0.628 c 0.351,0 0.813,0.018 0.813,-0.647 l 0,-1.903 C 0.813,-3.973 0,-3.843 0,-3.843 l 0,-0.555 2.883,0 0,0.555 c -0.37,0 -0.795,-0.056 -0.795,0.665 l 0,0.72 1.792,-1.94 2.144,0 0,0.555 c -0.222,0 -0.795,-0.111 -0.795,0.535 l 0,2.236 c 0,0.592 0.37,0.462 0.758,0.462 l 0,0.61 -2.809,0 0,-0.61 c 0.277,0 0.739,0.111 0.739,-0.462 l 0,-1.016 L 1.977,0 0,0 Z"
             id="path8215"
             style="fill:#e3000f;fill-opacity:1;fill-rule:nonzero;stroke:none" />
        </g>
        <g
           transform="translate(195.2025,475.8524)"
           id="g8217">
          <path
             d="m 0,0 0,-0.628 c 0.351,0 0.813,0.018 0.813,-0.647 l 0,-1.903 C 0.813,-3.973 0,-3.843 0,-3.843 l 0,-0.555 2.883,0 0,0.555 c -0.37,0 -0.795,-0.056 -0.795,0.665 l 0,0.72 1.792,-1.94 2.144,0 0,0.555 c -0.222,0 -0.795,-0.111 -0.795,0.535 l 0,2.236 c 0,0.592 0.37,0.462 0.758,0.462 l 0,0.61 -2.809,0 0,-0.61 c 0.277,0 0.739,0.111 0.739,-0.462 l 0,-1.016 L 1.977,0 0,0 Z"
             id="path8219"
             style="fill:none;stroke:#000000;stroke-width:0.222;stroke-linecap:butt;stroke-linejoin:round;stroke-miterlimit:4;stroke-opacity:1;stroke-dasharray:none" />
        </g>
        <g
           transform="translate(202.3165,475.8524)"
           id="g8221">
          <path
             d="m 0,0 0,-0.61 c 0.24,0 0.813,0.074 0.813,-0.462 l 0,-2.106 c 0,-0.795 -0.554,-0.665 -0.85,-0.665 l 0,-0.555 3.252,0 0,0.555 c -0.406,0 -0.794,-0.074 -0.794,0.665 l 0,2.106 c 0,0.462 0.554,0.462 0.757,0.462 L 3.178,0 0,0 Z"
             id="path8223"
             style="fill:#e3000f;fill-opacity:1;fill-rule:nonzero;stroke:none" />
        </g>
        <g
           transform="translate(202.3165,475.8524)"
           id="g8225">
          <path
             d="m 0,0 0,-0.61 c 0.24,0 0.813,0.074 0.813,-0.462 l 0,-2.106 c 0,-0.795 -0.554,-0.665 -0.85,-0.665 l 0,-0.555 3.252,0 0,0.555 c -0.406,0 -0.794,-0.074 -0.794,0.665 l 0,2.106 c 0,0.462 0.554,0.462 0.757,0.462 L 3.178,0 0,0 Z"
             id="path8227"
             style="fill:none;stroke:#000000;stroke-width:0.222;stroke-linecap:butt;stroke-linejoin:round;stroke-miterlimit:4;stroke-opacity:1;stroke-dasharray:none" />
        </g>
        <g
           transform="translate(206.4865,475.8524)"
           id="g8229">
          <path
             d="m 0,0 0,-0.628 c 0.351,0 0.813,0.018 0.813,-0.647 l 0,-1.903 C 0.813,-3.973 0,-3.843 0,-3.843 l 0,-0.555 2.883,0 0,0.555 c -0.37,0 -0.795,-0.056 -0.795,0.665 l 0,0.72 1.792,-1.94 2.144,0 0,0.555 c -0.222,0 -0.795,-0.111 -0.795,0.535 l 0,2.236 c 0,0.592 0.37,0.462 0.758,0.462 l 0,0.61 -2.809,0 0,-0.61 c 0.277,0 0.739,0.111 0.739,-0.462 l 0,-1.016 L 1.977,0 0,0 Z"
             id="path8231"
             style="fill:#e3000f;fill-opacity:1;fill-rule:nonzero;stroke:none" />
        </g>
        <g
           transform="translate(206.4865,475.8524)"
           id="g8233">
          <path
             d="m 0,0 0,-0.628 c 0.351,0 0.813,0.018 0.813,-0.647 l 0,-1.903 C 0.813,-3.973 0,-3.843 0,-3.843 l 0,-0.555 2.883,0 0,0.555 c -0.37,0 -0.795,-0.056 -0.795,0.665 l 0,0.72 1.792,-1.94 2.144,0 0,0.555 c -0.222,0 -0.795,-0.111 -0.795,0.535 l 0,2.236 c 0,0.592 0.37,0.462 0.758,0.462 l 0,0.61 -2.809,0 0,-0.61 c 0.277,0 0.739,0.111 0.739,-0.462 l 0,-1.016 L 1.977,0 0,0 Z"
             id="path8235"
             style="fill:none;stroke:#000000;stroke-width:0.222;stroke-linecap:butt;stroke-linejoin:round;stroke-miterlimit:4;stroke-opacity:1;stroke-dasharray:none" />
        </g>
        <g
           transform="translate(213.6005,475.8524)"
           id="g8237">
          <path
             d="m 0,0 0,-0.61 c 0.24,0 0.813,0.074 0.813,-0.462 l 0,-2.106 c 0,-0.795 -0.554,-0.665 -0.85,-0.665 l 0,-0.555 3.252,0 0,0.555 c -0.406,0 -0.794,-0.074 -0.794,0.665 l 0,2.106 c 0,0.462 0.554,0.462 0.757,0.462 L 3.178,0 0,0 Z"
             id="path8239"
             style="fill:#e3000f;fill-opacity:1;fill-rule:nonzero;stroke:none" />
        </g>
        <g
           transform="translate(213.6005,475.8524)"
           id="g8241">
          <path
             d="m 0,0 0,-0.61 c 0.24,0 0.813,0.074 0.813,-0.462 l 0,-2.106 c 0,-0.795 -0.554,-0.665 -0.85,-0.665 l 0,-0.555 3.252,0 0,0.555 c -0.406,0 -0.794,-0.074 -0.794,0.665 l 0,2.106 c 0,0.462 0.554,0.462 0.757,0.462 L 3.178,0 0,0 Z"
             id="path8243"
             style="fill:none;stroke:#000000;stroke-width:0.222;stroke-linecap:butt;stroke-linejoin:round;stroke-miterlimit:4;stroke-opacity:1;stroke-dasharray:none" />
        </g>
        <g
           transform="translate(178.9419,469.0248)"
           id="g8245">
          <path
             d="M 0,0 C 1.099,0.443 6.578,0.656 6.578,0.656 L 39.543,0.989 6.652,1.062 c 0,0 -5.894,0.102 -6.652,0.592 L 0,0 Z"
             id="path8247"
             style="fill:none;stroke:#000000;stroke-width:0.111;stroke-linecap:butt;stroke-linejoin:miter;stroke-miterlimit:4;stroke-opacity:1;stroke-dasharray:none" />
        </g>
        <path
           d="m 174.489,472.877 -0.554,0 0,-0.61 0.554,0 L 174.489,472.877 Z"
           id="path8249"
           style="fill:#ffffff;fill-opacity:1;fill-rule:nonzero;stroke:none" />
        <path
           d="m 175.542,472.914 -0.573,0 0,-0.684 0.573,0 L 175.542,472.914 Z"
           id="path8251"
           style="fill:#ffffff;fill-opacity:1;fill-rule:nonzero;stroke:none" />
        <path
           d="m 175.043,471.843 -0.702,0 0,-0.591 0.702,0 L 175.043,471.843 Z"
           id="path8253"
           style="fill:#ffffff;fill-opacity:1;fill-rule:nonzero;stroke:none" />
        <g
           transform="translate(173.9171,472.7932)"
           id="g8255">
          <path
             d="m 0,0 0.464,0 0,-0.077 -0.38,0 0,-0.194 0.351,0 0,-0.075 -0.351,0 0,-0.215 0.385,0 0,-0.075 L 0,-0.636 0,0 Z"
             id="path8257"
             style="fill:#000000;fill-opacity:1;fill-rule:nonzero;stroke:none" />
        </g>
        <g
           transform="translate(175.0656,472.8605)"
           id="g8259">
          <path
             d="m 0,0 0.285,0 c 0.056,0 0.101,-0.016 0.136,-0.048 0.035,-0.032 0.052,-0.077 0.052,-0.134 0,-0.05 -0.015,-0.093 -0.046,-0.13 C 0.396,-0.349 0.348,-0.367 0.285,-0.367 l -0.198,0 0,-0.269 L 0,-0.636 0,0 Z M 0.334,-0.089 C 0.315,-0.08 0.289,-0.075 0.257,-0.075 l -0.17,0 0,-0.22 0.17,0 c 0.038,0 0.069,0.009 0.093,0.025 0.024,0.016 0.036,0.045 0.036,0.087 0,0.046 -0.017,0.078 -0.052,0.094"
             id="path8261"
             style="fill:#000000;fill-opacity:1;fill-rule:nonzero;stroke:none" />
        </g>
        <g
           transform="translate(174.403,471.8909)"
           id="g8263">
          <path
             d="M 0,0 0.123,0 0.305,-0.538 0.486,0 l 0.123,0 0,-0.636 -0.082,0 0,0.375 c 0,0.013 0,0.035 0.001,0.065 0.001,0.03 0.001,0.062 0.001,0.096 l -0.182,-0.536 -0.085,0 -0.182,0.536 0,-0.019 c 0,-0.016 0,-0.04 0.001,-0.071 0.001,-0.032 0.001,-0.056 0.001,-0.071 l 0,-0.375 L 0,-0.636 0,0 Z"
             id="path8265"
             style="fill:#000000;fill-opacity:1;fill-rule:nonzero;stroke:none" />
        </g>
      </g>
    </g>
  </g>
</svg>
