<?xml version="1.0" encoding="UTF-8" standalone="no"?>
<!-- Created with Inkscape (http://www.inkscape.org/) -->

<svg
   width="2895"
   height="3840"
   viewBox="0 0 765.96873 1016"
   version="1.1"
   id="svg1"
   xml:space="preserve"
   inkscape:export-filename="rectAR.svg"
   inkscape:export-xdpi="96"
   inkscape:export-ydpi="96"
   xmlns:inkscape="http://www.inkscape.org/namespaces/inkscape"
   xmlns:sodipodi="http://sodipodi.sourceforge.net/DTD/sodipodi-0.dtd"
   xmlns="http://www.w3.org/2000/svg"
   xmlns:svg="http://www.w3.org/2000/svg"><sodipodi:namedview
     id="namedview1"
     pagecolor="#ffffff"
     bordercolor="#000000"
     borderopacity="0.25"
     inkscape:showpageshadow="2"
     inkscape:pageopacity="0.0"
     inkscape:pagecheckerboard="0"
     inkscape:deskcolor="#d1d1d1"
     inkscape:document-units="mm"><inkscape:page
       x="0"
       y="0"
       width="765.96875"
       height="1016"
       id="page2"
       margin="0"
       bleed="0" /></sodipodi:namedview><defs
     id="defs1" /><g
     inkscape:label="Layer 1"
     inkscape:groupmode="layer"
     id="layer1"><path
       style="fill:#000000"
       d="m 74.149479,976.11672 c -0.909505,-0.0517 -1.653646,-0.20732 -1.653646,-0.34589 0,-0.13858 -0.416718,-0.25196 -0.926041,-0.25196 -0.509323,0 -0.926042,-0.10792 -0.926042,-0.23982 0,-0.13189 -0.224688,-0.18105 -0.499306,-0.10924 -0.274618,0.0718 -0.579301,10e-4 -0.677073,-0.15706 -0.09777,-0.1582 -0.468397,-0.28763 -0.823611,-0.28763 -0.355214,0 -0.645843,-0.10961 -0.645843,-0.24356 0,-0.13396 -0.362866,-0.32326 -0.806368,-0.42067 -0.443502,-0.0974 -0.948392,-0.40453 -1.121978,-0.68248 -0.173586,-0.27796 -0.469202,-0.50538 -0.656924,-0.50538 -0.187723,0 -0.707198,-0.41672 -1.154389,-0.92604 -0.447192,-0.50932 -0.928397,-0.92604 -1.069345,-0.92604 -0.369861,0 -2.863913,-2.41232 -2.863913,-2.77006 0,-0.16562 -0.416719,-0.70504 -0.926042,-1.19869 -0.509323,-0.49366 -0.926041,-1.05653 -0.926041,-1.25083 0,-0.1943 -0.178594,-0.42181 -0.396875,-0.50557 -0.218282,-0.0838 -0.396875,-0.37769 -0.396875,-0.65316 0,-0.27547 -0.117656,-0.50086 -0.261457,-0.50086 -0.143801,0 -0.337612,-0.47625 -0.430691,-1.05833 -0.09308,-0.58208 -0.258606,-1.05833 -0.367838,-1.05833 -0.383321,0 -0.792098,-4.02802 -0.792098,-7.80521 0,-3.77719 0.408777,-7.80521 0.792098,-7.80521 0.109232,0 0.274759,-0.47625 0.367838,-1.05834 0.09308,-0.58208 0.28689,-1.05833 0.430691,-1.05833 0.143801,0 0.261457,-0.22539 0.261457,-0.50086 0,-0.27547 0.178593,-0.56939 0.396875,-0.65315 0.218281,-0.0838 0.396875,-0.31127 0.396875,-0.50558 0,-0.1943 0.416718,-0.75717 0.926041,-1.25083 0.509323,-0.49365 0.926042,-1.0275 0.926042,-1.18632 0,-0.37673 2.443331,-2.78243 2.82595,-2.78243 0.161828,0 0.660116,-0.41672 1.107308,-0.92604 0.447191,-0.50932 0.917322,-0.92604 1.044735,-0.92604 0.127413,0 0.441052,-0.23138 0.696977,-0.51417 0.255924,-0.28279 0.810159,-0.58991 1.231632,-0.68248 0.421473,-0.0926 0.766315,-0.27792 0.766315,-0.41187 0,-0.13396 0.273843,-0.24356 0.608541,-0.24356 0.334698,0 0.726462,-0.11792 0.870586,-0.26205 0.144124,-0.14412 0.852546,-0.34103 1.574271,-0.43756 0.721724,-0.0965 1.397181,-0.30604 1.501014,-0.46556 0.269228,-0.41363 424.274031,-0.41363 424.543261,0 0.10383,0.15952 0.77929,0.36902 1.50101,0.46556 0.72173,0.0965 1.43015,0.29344 1.57427,0.43756 0.14413,0.14413 0.53589,0.26205 0.87059,0.26205 0.3347,0 0.60854,0.11906 0.60854,0.26458 0,0.14552 0.17859,0.26458 0.39687,0.26458 0.21829,0 0.39688,0.11533 0.39688,0.25628 0,0.14096 0.17136,0.19052 0.38081,0.11015 0.21602,-0.0829 0.52979,0.0924 0.7251,0.40518 0.18936,0.30322 0.49789,0.55131 0.68561,0.55131 0.18772,0 0.7072,0.41672 1.15439,0.92604 0.44719,0.50932 0.92834,0.92604 1.06921,0.92604 0.33593,0 2.86077,2.43921 2.86262,2.76553 7.8e-4,0.13859 0.37256,0.6349 0.82617,1.10291 0.8425,0.86924 1.41724,1.72282 1.71543,2.54771 0.0921,0.25466 0.27115,0.46302 0.39798,0.46302 0.12682,0 0.30675,0.47625 0.39983,1.05833 0.0931,0.58209 0.26451,1.05834 0.38096,1.05834 0.11645,0 0.29594,0.68461 0.39885,1.52135 0.10292,0.83675 0.30719,1.59849 0.45394,1.69276 0.17059,0.10959 0.3144,4.95212 0.39876,13.42761 l 0.13195,13.2562 -219.31112,-0.051 c -120.62111,-0.028 -220.055256,-0.0933 -220.964761,-0.14492 z"
       id="path4" /></g></svg>
