<?xml version="1.0" encoding="UTF-8" standalone="no"?>
<!-- Created with Inkscape (http://www.inkscape.org/) -->

<svg
   width="2895"
   height="3840"
   viewBox="0 0 765.96873 1016"
   version="1.1"
   id="svg1"
   xml:space="preserve"
   inkscape:export-filename="marco6.svg"
   inkscape:export-xdpi="96"
   inkscape:export-ydpi="96"
   xmlns:inkscape="http://www.inkscape.org/namespaces/inkscape"
   xmlns:sodipodi="http://sodipodi.sourceforge.net/DTD/sodipodi-0.dtd"
   xmlns="http://www.w3.org/2000/svg"
   xmlns:svg="http://www.w3.org/2000/svg"><sodipodi:namedview
     id="namedview1"
     pagecolor="#ffffff"
     bordercolor="#000000"
     borderopacity="0.25"
     inkscape:showpageshadow="2"
     inkscape:pageopacity="0.0"
     inkscape:pagecheckerboard="0"
     inkscape:deskcolor="#d1d1d1"
     inkscape:document-units="mm"><inkscape:page
       x="0"
       y="0"
       width="765.96875"
       height="1016"
       id="page2"
       margin="0"
       bleed="0" /></sodipodi:namedview><defs
     id="defs1" /><g
     inkscape:label="Layer 1"
     inkscape:groupmode="layer"
     id="layer1"><path
       style="fill:#000000"
       d="M 94.786979,923.99235 C 93.280161,923.9447 92.075,923.79314 92.075,923.65127 c 0,-0.14043 -0.714375,-0.25533 -1.5875,-0.25533 -0.873125,0 -1.5875,-0.0924 -1.5875,-0.20543 0,-0.11298 -0.462316,-0.16134 -1.027368,-0.10745 -0.56541,0.0539 -1.107798,-0.0322 -1.20624,-0.19144 -0.09838,-0.15919 -0.522006,-0.28943 -0.941392,-0.28943 -0.419386,0 -0.836105,-0.11906 -0.926042,-0.26458 -0.08994,-0.14552 -0.513682,-0.26458 -0.941656,-0.26458 -0.427975,0 -0.778135,-0.11907 -0.778135,-0.26459 0,-0.14552 -0.334431,-0.26458 -0.743181,-0.26458 -0.408749,0 -0.974296,-0.17481 -1.25677,-0.38846 -0.282475,-0.21365 -0.781482,-0.39225 -1.108903,-0.39687 -0.327422,-0.005 -0.595313,-0.0994 -0.595313,-0.21059 0,-0.21249 -1.931248,-1.12075 -2.383065,-1.12075 -0.144523,0 -0.262768,-0.0908 -0.262768,-0.20184 0,-0.20167 -0.115017,-0.2721 -2.024935,-1.23995 -0.559775,-0.28367 -1.285266,-0.81945 -1.612201,-1.19063 -0.326935,-0.37118 -0.71328,-0.67487 -0.858543,-0.67487 -0.145264,0 -0.740747,-0.50601 -1.323297,-1.12448 -0.58255,-0.61846 -1.181955,-1.12448 -1.332012,-1.12448 -0.340524,0 -3.696929,-3.38311 -3.696929,-3.72635 0,-0.13821 -0.535781,-0.76467 -1.190625,-1.39212 C 64.035781,908.12502 63.5,907.50073 63.5,907.36516 c 0,-0.13558 -0.271915,-0.54294 -0.604255,-0.90525 -0.332341,-0.36232 -0.811883,-1.07548 -1.065648,-1.5848 -0.522448,-1.04859 -1.038894,-1.92102 -1.252981,-2.11667 -0.361125,-0.33002 -1.575033,-3.15424 -1.575033,-3.66439 0,-0.31292 -0.0893,-0.56987 -0.198437,-0.57101 -0.330205,-0.003 -0.87132,-1.37989 -1.03932,-2.64377 -0.08704,-0.65484 -0.258103,-1.31854 -0.380129,-1.47488 -0.122026,-0.15635 -0.301269,-1.13862 -0.398317,-2.18282 -0.09705,-1.0442 -0.278417,-1.89855 -0.403041,-1.89855 -0.124624,0 -0.226589,-0.71437 -0.226589,-1.5875 0,-0.88194 -0.117593,-1.5875 -0.264583,-1.5875 -0.171924,0 -0.264584,-3.66007 -0.264584,-10.45104 0,-6.79097 0.09266,-10.45104 0.264584,-10.45104 0.14699,0 0.264583,-0.70556 0.264583,-1.5875 0,-0.87313 0.101965,-1.5875 0.226589,-1.5875 0.124624,0 0.305993,-0.85435 0.403041,-1.89855 0.09705,-1.0442 0.276291,-2.02647 0.398317,-2.18281 0.122026,-0.15635 0.293084,-0.82005 0.380129,-1.47489 0.168,-1.26388 0.709115,-2.64034 1.03932,-2.64377 0.10914,-10e-4 0.198437,-0.25809 0.198437,-0.57101 0,-0.51015 1.213908,-3.33437 1.575033,-3.66439 0.214087,-0.19565 0.730533,-1.06808 1.252981,-2.11667 0.253765,-0.50932 0.733307,-1.22248 1.065648,-1.58479 0.33234,-0.36232 0.604255,-0.76968 0.604255,-0.90525 0,-0.13558 0.535781,-0.75987 1.190625,-1.38732 0.654844,-0.62745 1.190625,-1.25391 1.190625,-1.39212 0,-0.34324 3.356405,-3.72635 3.696929,-3.72635 0.150057,0 0.749462,-0.50602 1.332012,-1.12448 0.58255,-0.61847 1.178033,-1.12448 1.323297,-1.12448 0.145263,0 0.531608,-0.30369 0.858543,-0.67487 0.326935,-0.37118 1.052426,-0.90696 1.612201,-1.19062 1.909918,-0.96785 2.024935,-1.03828 2.024935,-1.23996 0,-0.11101 0.118245,-0.20184 0.262768,-0.20184 0.451817,0 2.383065,-0.90826 2.383065,-1.12075 0,-0.11119 0.267891,-0.20596 0.595313,-0.21058 0.327421,-0.005 0.826428,-0.18323 1.108903,-0.39688 0.282474,-0.21365 0.848021,-0.38846 1.25677,-0.38846 0.40875,0 0.743181,-0.11906 0.743181,-0.26458 0,-0.14552 0.35016,-0.26459 0.778135,-0.26459 0.427974,0 0.85172,-0.11906 0.941656,-0.26458 0.08994,-0.14552 0.506656,-0.26458 0.926042,-0.26458 0.419386,0 0.843013,-0.13024 0.941392,-0.28942 0.09844,-0.15929 0.64083,-0.24537 1.20624,-0.19145 0.565052,0.0539 1.027368,0.006 1.027368,-0.10745 0,-0.11299 0.704453,-0.20543 1.565451,-0.20543 1.017176,0 1.604063,-0.11584 1.675695,-0.33073 0.162352,-0.48706 461.667854,-0.48706 461.830204,0 0.0716,0.21489 0.65852,0.33073 1.6757,0.33073 0.861,0 1.56545,0.0924 1.56545,0.20543 0,0.11298 0.47625,0.16001 1.05833,0.1045 0.65712,-0.0627 1.05834,0.01 1.05834,0.19144 0,0.16081 0.41672,0.29238 0.92604,0.29238 0.50932,0 0.92604,0.11906 0.92604,0.26458 0,0.14552 0.41672,0.26458 0.92604,0.26458 0.50932,0 0.92604,0.11907 0.92604,0.26459 0,0.14552 0.26789,0.26531 0.59532,0.26621 0.32742,9e-4 0.93634,0.17949 1.35316,0.39688 0.41681,0.21738 0.98236,0.39524 1.25677,0.39524 0.2744,0 0.49892,0.091 0.49892,0.20217 0,0.21249 1.93125,1.12075 2.38307,1.12075 0.14452,0 0.26276,0.0908 0.26276,0.20184 0,0.20168 0.11502,0.27211 2.02494,1.23996 0.55977,0.28366 1.25969,0.78968 1.55536,1.12447 0.29568,0.3348 0.66011,0.60873 0.80985,0.60873 0.14974,0 0.76808,0.53578 1.37408,1.19062 0.60601,0.65485 1.23229,1.19063 1.39175,1.19063 0.34128,0 3.69194,3.42811 3.69194,3.77728 0,0.13127 0.53578,0.75939 1.19062,1.39582 0.65485,0.63644 1.19063,1.25211 1.19063,1.36817 0,0.11606 0.27191,0.50745 0.60426,0.86977 0.33234,0.36231 0.81188,1.07547 1.06564,1.58479 0.5249,1.05351 1.0398,1.92241 1.2543,2.11667 0.0803,0.0728 0.354,0.60854 0.60813,1.19062 0.25413,0.58209 0.57535,1.26508 0.71382,1.51777 0.13847,0.25269 0.25177,0.69917 0.25177,0.99219 0,0.29301 0.11765,0.53275 0.26145,0.53275 0.1438,0 0.33762,0.47625 0.43069,1.05834 0.0931,0.58208 0.27308,1.05833 0.40001,1.05833 0.12692,0 0.23076,0.39291 0.23076,0.87312 0,0.48022 0.11571,0.98884 0.25713,1.13025 0.14142,0.14142 0.33711,1.11774 0.43487,2.16959 0.0978,1.05185 0.27971,1.91246 0.40433,1.91246 0.12462,0 0.22659,0.70445 0.22659,1.56545 0,1.0172 0.11583,1.60404 0.33073,1.67564 0.26117,0.087 0.34912,6.18458 0.41818,28.99393 l 0.0874,28.88373 -246.54683,-0.0558 c -135.6007,-0.0307 -247.767162,-0.0944 -249.258751,-0.14154 z"
       id="path4" /></g></svg>
